<svg xmlns="http://www.w3.org/2000/svg" viewBox="0 0 800 800" width="800" height="800">
<defs><linearGradient id="d3" x1="0" y1="0" x2="0" y2="1"><stop offset="0" stop-color="#868e96"/><stop offset="1" stop-color="#dee2e6"/></linearGradient></defs>
<rect x="0" y="0" width="800" height="800" fill="url(#d3)"/>
<g transform="translate(160 110) scale(1.1 1.1)"><g><g transform="translate(0 8)"><circle cx="-55" cy="10" r="38" fill="#adb5bd"/><circle cx="-15" cy="-18" r="50" fill="#adb5bd"/><circle cx="40" cy="-8" r="42" fill="#adb5bd"/><circle cx="78" cy="18" r="30" fill="#adb5bd"/><rect x="-95" y="5" width="200" height="50" rx="25" fill="#adb5bd"/></g><circle cx="-55" cy="10" r="38" fill="#ced4da"/><circle cx="-15" cy="-18" r="50" fill="#ced4da"/><circle cx="40" cy="-8" r="42" fill="#ced4da"/><circle cx="78" cy="18" r="30" fill="#ced4da"/><rect x="-95" y="5" width="200" height="50" rx="25" fill="#ced4da"/></g></g>
<g transform="translate(560 90) scale(1.3 1.3)"><g><g transform="translate(0 8)"><circle cx="-55" cy="10" r="38" fill="#adb5bd"/><circle cx="-15" cy="-18" r="50" fill="#adb5bd"/><circle cx="40" cy="-8" r="42" fill="#adb5bd"/><circle cx="78" cy="18" r="30" fill="#adb5bd"/><rect x="-95" y="5" width="200" height="50" rx="25" fill="#adb5bd"/></g><circle cx="-55" cy="10" r="38" fill="#ced4da"/><circle cx="-15" cy="-18" r="50" fill="#ced4da"/><circle cx="40" cy="-8" r="42" fill="#ced4da"/><circle cx="78" cy="18" r="30" fill="#ced4da"/><rect x="-95" y="5" width="200" height="50" rx="25" fill="#ced4da"/></g></g>
<path d="M -125.4 580 Q 101.7 382.4 328.7 580 Z" fill="#8ce99a"/>
<path d="M 136.4 580 Q 358.6 381.8 580.8 580 Z" fill="#8ce99a"/>
<path d="M 396.8 580 Q 716.8 341.8 1036.9 580 Z" fill="#8ce99a"/>
<path d="M 0 600 Q 240.0 582 400.0 600 T 800 600 L 800 800 L 0 800 Z" fill="#69db7c"/>
<path d="M 0 720 Q 320.0 702 560.0 720 T 1000 720 L 800 800 L 0 800 Z" fill="#51cf66"/>
<g transform="translate(640 620) scale(0.75 0.75)"><rect x="-170" y="-200" width="340" height="200" fill="#fff4e6"/><path d="M -210 -180 Q -190 -250 -100 -330 Q 0 -380 100 -330 Q 190 -250 210 -180 Q 0 -200 -210 -180 Z" fill="#e0b95b"/><path d="M -160 -200 Q -60 -230 40 -300 M -60 -196 Q 40 -240 120 -300 M 60 -196 Q 130 -230 170 -250" fill="none" stroke="#b7974a" stroke-width="5" stroke-linecap="round" stroke-linejoin="round"/><rect x="90" y="-360" width="40" height="80" fill="#adb5bd"/><rect x="-130" y="-150" width="80" height="70" fill="#a5d8ff"/><line x1="-90" y1="-150" x2="-90" y2="-80" stroke="#8d5524" stroke-width="5" stroke-linecap="round"/><line x1="-130" y1="-115" x2="-50" y2="-115" stroke="#8d5524" stroke-width="5" stroke-linecap="round"/><rect x="20" y="-150" width="90" height="150" rx="6" fill="#8d5524"/><circle cx="94" cy="-74" r="6" fill="#ffd43b"/></g>
<g transform="translate(330 770) scale(0.9 0.9)"><rect x="-46" y="-44" width="12" height="44" rx="5" fill="#495057"/><rect x="-24" y="-44" width="12" height="44" rx="5" fill="#495057"/><rect x="16" y="-44" width="12" height="44" rx="5" fill="#495057"/><rect x="38" y="-44" width="12" height="44" rx="5" fill="#495057"/><circle cx="-50" cy="-72" r="30" fill="#f8f9fa"/><circle cx="-20" cy="-88" r="34" fill="#f8f9fa"/><circle cx="18" cy="-88" r="34" fill="#f8f9fa"/><circle cx="48" cy="-72" r="28" fill="#f8f9fa"/><circle cx="0" cy="-62" r="40" fill="#f8f9fa"/><circle cx="-30" cy="-56" r="26" fill="#f8f9fa"/><circle cx="32" cy="-56" r="26" fill="#f8f9fa"/><ellipse cx="80" cy="-92" rx="24" ry="30" fill="#495057" transform="rotate(-20 80 -92)"/><ellipse cx="62" cy="-112" rx="14" ry="7" fill="#495057" transform="rotate(-30 62 -112)"/><circle cx="70" cy="-116" r="14" fill="#f8f9fa"/><circle cx="88" cy="-98" r="5" fill="#fff"/><circle cx="89" cy="-98" r="2.6" fill="#2b2b3a"/><g transform="translate(-40 -140) scale(0.5 0.5)"><path d="M 0 -16 Q 12 0 8 8 Q 0 16 -8 8 Q -12 0 0 -16 Z" fill="#74c0fc"/></g><g transform="translate(0 -140) scale(0.5 0.5)"><path d="M 0 -16 Q 12 0 8 8 Q 0 16 -8 8 Q -12 0 0 -16 Z" fill="#74c0fc"/></g><g transform="translate(40 -140) scale(0.5 0.5)"><path d="M 0 -16 Q 12 0 8 8 Q 0 16 -8 8 Q -12 0 0 -16 Z" fill="#74c0fc"/></g></g>
<g transform="translate(450 790) scale(0.9 0.9)"><rect x="-46" y="-44" width="12" height="44" rx="5" fill="#495057"/><rect x="-24" y="-44" width="12" height="44" rx="5" fill="#495057"/><rect x="16" y="-44" width="12" height="44" rx="5" fill="#495057"/><rect x="38" y="-44" width="12" height="44" rx="5" fill="#495057"/><circle cx="-50" cy="-72" r="30" fill="#f8f9fa"/><circle cx="-20" cy="-88" r="34" fill="#f8f9fa"/><circle cx="18" cy="-88" r="34" fill="#f8f9fa"/><circle cx="48" cy="-72" r="28" fill="#f8f9fa"/><circle cx="0" cy="-62" r="40" fill="#f8f9fa"/><circle cx="-30" cy="-56" r="26" fill="#f8f9fa"/><circle cx="32" cy="-56" r="26" fill="#f8f9fa"/><ellipse cx="80" cy="-92" rx="24" ry="30" fill="#495057" transform="rotate(-20 80 -92)"/><ellipse cx="62" cy="-112" rx="14" ry="7" fill="#495057" transform="rotate(-30 62 -112)"/><circle cx="70" cy="-116" r="14" fill="#f8f9fa"/><circle cx="88" cy="-98" r="5" fill="#fff"/><circle cx="89" cy="-98" r="2.6" fill="#2b2b3a"/><g transform="translate(-40 -140) scale(0.5 0.5)"><path d="M 0 -16 Q 12 0 8 8 Q 0 16 -8 8 Q -12 0 0 -16 Z" fill="#74c0fc"/></g><g transform="translate(0 -140) scale(0.5 0.5)"><path d="M 0 -16 Q 12 0 8 8 Q 0 16 -8 8 Q -12 0 0 -16 Z" fill="#74c0fc"/></g><g transform="translate(40 -140) scale(0.5 0.5)"><path d="M 0 -16 Q 12 0 8 8 Q 0 16 -8 8 Q -12 0 0 -16 Z" fill="#74c0fc"/></g></g>
<g transform="translate(120 790) scale(1.2 1.2)"><path d="M -58 -156 Q -70 -96 -56 -70 Q 0 -60 56 -70 Q 70 -96 58 -156 Z" fill="#f6c453"/><ellipse cx="-16" cy="-6" rx="14" ry="8" fill="#ac5b78"/><ellipse cx="16" cy="-6" rx="14" ry="8" fill="#ac5b78"/><path d="M -26 -106 Q 0 -112 26 -106 L 32 -74 Q 60 -34 66 -12 Q 0 2 -66 -12 Q -60 -34 -32 -74 Z" fill="#f783ac"/><rect x="-32" y="-80" width="64" height="10" rx="5" fill="#d16f92"/><path d="M -28 -98 Q -55 -99 -66 -112" fill="none" stroke="#f783ac" stroke-width="14" stroke-linecap="round" stroke-linejoin="round"/><path d="M 28 -98 Q 50 -65 56 -44" fill="none" stroke="#f783ac" stroke-width="14" stroke-linecap="round" stroke-linejoin="round"/><circle cx="-66" cy="-112" r="10.5" fill="#f3c3a0"/><circle cx="56" cy="-44" r="10.5" fill="#f3c3a0"/><rect x="-9" y="-116" width="18" height="16" fill="#f3c3a0"/><circle cx="-49" cy="-148" r="11" fill="#f3c3a0"/><circle cx="49" cy="-148" r="11" fill="#f3c3a0"/><circle cx="0" cy="-150" r="50" fill="#f3c3a0"/><ellipse cx="-30" cy="-128" rx="9" ry="5.5" fill="#ff8fab" opacity="0.6"/><ellipse cx="30" cy="-128" rx="9" ry="5.5" fill="#ff8fab" opacity="0.6"/><path d="M -26 -147 Q -18 -159 -10 -147" fill="none" stroke="#2b2b3a" stroke-width="3.8" stroke-linecap="round" stroke-linejoin="round"/><path d="M 10 -147 Q 18 -159 26 -147" fill="none" stroke="#2b2b3a" stroke-width="3.8" stroke-linecap="round" stroke-linejoin="round"/><path d="M -4 -134 Q 0 -130 4 -134" fill="none" stroke="#b69278" stroke-width="3" stroke-linecap="round" stroke-linejoin="round"/><path d="M -11.7 -123 Q 0 -99 11.7 -123 Z" fill="#c92a2a" stroke="#2b2b3a" stroke-width="3" stroke-linecap="round" stroke-linejoin="round"/><ellipse cx="0" cy="-112" rx="5.4" ry="3.5" fill="#ff8787"/><path d="M -54 -144 Q -60 -210 0 -210 Q 60 -210 54 -144 Q 50 -168 30 -178 Q 22 -164 4 -178 Q -12 -164 -24 -178 Q -46 -170 -54 -144 Z" fill="#f6c453"/><g transform="translate(36 -186) scale(0.8 0.8)"><line x1="0" y1="0" x2="0" y2="0" stroke="#40c057" stroke-width="5" stroke-linecap="round"/><ellipse cx="10" cy="0" rx="12" ry="5" fill="#51cf66" transform="rotate(-30 10 0)"/><circle cx="11" cy="0" r="10" fill="#ffd43b"/><circle cx="3.4" cy="10.5" r="10" fill="#ffd43b"/><circle cx="-8.9" cy="6.5" r="10" fill="#ffd43b"/><circle cx="-8.9" cy="-6.5" r="10" fill="#ffd43b"/><circle cx="3.4" cy="-10.5" r="10" fill="#ffd43b"/><circle cx="0" cy="0" r="8" fill="#ffd43b"/></g></g>
<g transform="translate(560 790) scale(-1.2 1.2)"><rect x="-26" y="-52" width="20" height="46" rx="8" fill="#5c3a1e"/><rect x="6" y="-52" width="20" height="46" rx="8" fill="#5c3a1e"/><ellipse cx="-17" cy="-6" rx="16" ry="9" fill="#2c863c"/><ellipse cx="17" cy="-6" rx="16" ry="9" fill="#2c863c"/><path d="M -32 -106 Q 0 -112 32 -106 L 40 -46 Q 0 -36 -40 -46 Z" fill="#40c057"/><rect x="-38" y="-62" width="76" height="10" rx="5" fill="#309041"/><path d="M -28 -98 Q -48 -63 -52 -40" fill="none" stroke="#40c057" stroke-width="14" stroke-linecap="round" stroke-linejoin="round"/><path d="M 28 -98 Q 58 -123 72 -160" fill="none" stroke="#40c057" stroke-width="14" stroke-linecap="round" stroke-linejoin="round"/><circle cx="-52" cy="-40" r="10.5" fill="#dca36f"/><circle cx="72" cy="-160" r="10.5" fill="#dca36f"/><rect x="-9" y="-116" width="18" height="16" fill="#dca36f"/><circle cx="-49" cy="-148" r="11" fill="#dca36f"/><circle cx="49" cy="-148" r="11" fill="#dca36f"/><circle cx="0" cy="-150" r="50" fill="#dca36f"/><ellipse cx="-30" cy="-128" rx="9" ry="5.5" fill="#ff8fab" opacity="0.6"/><ellipse cx="30" cy="-128" rx="9" ry="5.5" fill="#ff8fab" opacity="0.6"/><ellipse cx="-21" cy="-150" rx="6.5" ry="8.5" fill="#2b2b3a"/><circle cx="-19" cy="-153" r="2.2" fill="#fff"/><ellipse cx="15" cy="-150" rx="6.5" ry="8.5" fill="#2b2b3a"/><circle cx="17" cy="-153" r="2.2" fill="#fff"/><path d="M -4 -134 Q 0 -130 4 -134" fill="none" stroke="#a57a53" stroke-width="3" stroke-linecap="round" stroke-linejoin="round"/><path d="M -11.7 -123 Q 0 -99 11.7 -123 Z" fill="#c92a2a" stroke="#2b2b3a" stroke-width="3" stroke-linecap="round" stroke-linejoin="round"/><ellipse cx="0" cy="-112" rx="5.4" ry="3.5" fill="#ff8787"/><path d="M -52 -146 Q -58 -208 0 -208 Q 58 -208 52 -146 Q 46 -170 24 -176 Q 30 -186 18 -188 Q 6 -174 -20 -178 Q -44 -174 -52 -146 Z" fill="#4a2c17"/></g>
<line x1="634.7" y1="657.6" x2="628.7" y2="679.6" stroke="#4dabf7" stroke-width="4" stroke-linecap="round" opacity="0.8"/>
<line x1="388" y1="209.3" x2="382" y2="231.3" stroke="#4dabf7" stroke-width="4" stroke-linecap="round" opacity="0.8"/>
<line x1="0.4" y1="530.3" x2="-5.6" y2="552.3" stroke="#4dabf7" stroke-width="4" stroke-linecap="round" opacity="0.8"/>
<line x1="376.2" y1="607.8" x2="370.2" y2="629.8" stroke="#4dabf7" stroke-width="4" stroke-linecap="round" opacity="0.8"/>
<line x1="298.5" y1="616.1" x2="292.5" y2="638.1" stroke="#4dabf7" stroke-width="4" stroke-linecap="round" opacity="0.8"/>
<line x1="218.2" y1="641.5" x2="212.2" y2="663.5" stroke="#4dabf7" stroke-width="4" stroke-linecap="round" opacity="0.8"/>
<line x1="583.9" y1="331.2" x2="577.9" y2="353.2" stroke="#4dabf7" stroke-width="4" stroke-linecap="round" opacity="0.8"/>
<line x1="430.6" y1="545.6" x2="424.6" y2="567.6" stroke="#4dabf7" stroke-width="4" stroke-linecap="round" opacity="0.8"/>
<line x1="154.4" y1="442.9" x2="148.4" y2="464.9" stroke="#4dabf7" stroke-width="4" stroke-linecap="round" opacity="0.8"/>
<line x1="644.1" y1="212.4" x2="638.1" y2="234.4" stroke="#4dabf7" stroke-width="4" stroke-linecap="round" opacity="0.8"/>
<line x1="642.7" y1="548.6" x2="636.7" y2="570.6" stroke="#4dabf7" stroke-width="4" stroke-linecap="round" opacity="0.8"/>
<line x1="675.4" y1="268.5" x2="669.4" y2="290.5" stroke="#4dabf7" stroke-width="4" stroke-linecap="round" opacity="0.8"/>
<line x1="74.5" y1="640.2" x2="68.5" y2="662.2" stroke="#4dabf7" stroke-width="4" stroke-linecap="round" opacity="0.8"/>
<line x1="643.8" y1="356.2" x2="637.8" y2="378.2" stroke="#4dabf7" stroke-width="4" stroke-linecap="round" opacity="0.8"/>
<line x1="75" y1="157.7" x2="69" y2="179.7" stroke="#4dabf7" stroke-width="4" stroke-linecap="round" opacity="0.8"/>
<line x1="507.9" y1="232.9" x2="501.9" y2="254.9" stroke="#4dabf7" stroke-width="4" stroke-linecap="round" opacity="0.8"/>
<line x1="761.1" y1="470.9" x2="755.1" y2="492.9" stroke="#4dabf7" stroke-width="4" stroke-linecap="round" opacity="0.8"/>
<line x1="160.7" y1="524.3" x2="154.7" y2="546.3" stroke="#4dabf7" stroke-width="4" stroke-linecap="round" opacity="0.8"/>
<line x1="288.3" y1="746.2" x2="282.3" y2="768.2" stroke="#4dabf7" stroke-width="4" stroke-linecap="round" opacity="0.8"/>
<line x1="727.6" y1="411.7" x2="721.6" y2="433.7" stroke="#4dabf7" stroke-width="4" stroke-linecap="round" opacity="0.8"/>
<line x1="515.7" y1="558.3" x2="509.7" y2="580.3" stroke="#4dabf7" stroke-width="4" stroke-linecap="round" opacity="0.8"/>
<line x1="644.4" y1="781.1" x2="638.4" y2="803.1" stroke="#4dabf7" stroke-width="4" stroke-linecap="round" opacity="0.8"/>
<line x1="22.7" y1="289.1" x2="16.7" y2="311.1" stroke="#4dabf7" stroke-width="4" stroke-linecap="round" opacity="0.8"/>
<line x1="481.4" y1="243.5" x2="475.4" y2="265.5" stroke="#4dabf7" stroke-width="4" stroke-linecap="round" opacity="0.8"/>
<line x1="471.3" y1="71.7" x2="465.3" y2="93.7" stroke="#4dabf7" stroke-width="4" stroke-linecap="round" opacity="0.8"/>
<line x1="704.1" y1="420.2" x2="698.1" y2="442.2" stroke="#4dabf7" stroke-width="4" stroke-linecap="round" opacity="0.8"/>
<line x1="93.5" y1="530.2" x2="87.5" y2="552.2" stroke="#4dabf7" stroke-width="4" stroke-linecap="round" opacity="0.8"/>
<line x1="249.8" y1="157" x2="243.8" y2="179" stroke="#4dabf7" stroke-width="4" stroke-linecap="round" opacity="0.8"/>
<line x1="387" y1="110.5" x2="381" y2="132.5" stroke="#4dabf7" stroke-width="4" stroke-linecap="round" opacity="0.8"/>
<line x1="167.9" y1="692.4" x2="161.9" y2="714.4" stroke="#4dabf7" stroke-width="4" stroke-linecap="round" opacity="0.8"/>
<line x1="558.6" y1="10" x2="552.6" y2="32" stroke="#4dabf7" stroke-width="4" stroke-linecap="round" opacity="0.8"/>
<line x1="622.4" y1="13.6" x2="616.4" y2="35.6" stroke="#4dabf7" stroke-width="4" stroke-linecap="round" opacity="0.8"/>
<line x1="266.3" y1="723.6" x2="260.3" y2="745.6" stroke="#4dabf7" stroke-width="4" stroke-linecap="round" opacity="0.8"/>
<line x1="496.2" y1="244.9" x2="490.2" y2="266.9" stroke="#4dabf7" stroke-width="4" stroke-linecap="round" opacity="0.8"/>
<line x1="301.9" y1="311.3" x2="295.9" y2="333.3" stroke="#4dabf7" stroke-width="4" stroke-linecap="round" opacity="0.8"/>
<line x1="101.5" y1="799.9" x2="95.5" y2="821.9" stroke="#4dabf7" stroke-width="4" stroke-linecap="round" opacity="0.8"/>
<line x1="43.1" y1="338.3" x2="37.1" y2="360.3" stroke="#4dabf7" stroke-width="4" stroke-linecap="round" opacity="0.8"/>
<line x1="597.1" y1="318.2" x2="591.1" y2="340.2" stroke="#4dabf7" stroke-width="4" stroke-linecap="round" opacity="0.8"/>
<line x1="784.8" y1="196.2" x2="778.8" y2="218.2" stroke="#4dabf7" stroke-width="4" stroke-linecap="round" opacity="0.8"/>
<line x1="783.4" y1="713.8" x2="777.4" y2="735.8" stroke="#4dabf7" stroke-width="4" stroke-linecap="round" opacity="0.8"/>
<line x1="536.2" y1="711.6" x2="530.2" y2="733.6" stroke="#4dabf7" stroke-width="4" stroke-linecap="round" opacity="0.8"/>
<line x1="357.8" y1="665" x2="351.8" y2="687" stroke="#4dabf7" stroke-width="4" stroke-linecap="round" opacity="0.8"/>
<line x1="636.9" y1="413.3" x2="630.9" y2="435.3" stroke="#4dabf7" stroke-width="4" stroke-linecap="round" opacity="0.8"/>
<line x1="376.7" y1="564.5" x2="370.7" y2="586.5" stroke="#4dabf7" stroke-width="4" stroke-linecap="round" opacity="0.8"/>
<line x1="327.3" y1="68.7" x2="321.3" y2="90.7" stroke="#4dabf7" stroke-width="4" stroke-linecap="round" opacity="0.8"/>
<line x1="597.2" y1="212.7" x2="591.2" y2="234.7" stroke="#4dabf7" stroke-width="4" stroke-linecap="round" opacity="0.8"/>
<line x1="390.1" y1="627.2" x2="384.1" y2="649.2" stroke="#4dabf7" stroke-width="4" stroke-linecap="round" opacity="0.8"/>
<line x1="137.7" y1="17.5" x2="131.7" y2="39.5" stroke="#4dabf7" stroke-width="4" stroke-linecap="round" opacity="0.8"/>
<line x1="98.8" y1="471.5" x2="92.8" y2="493.5" stroke="#4dabf7" stroke-width="4" stroke-linecap="round" opacity="0.8"/>
<line x1="288.8" y1="205" x2="282.8" y2="227" stroke="#4dabf7" stroke-width="4" stroke-linecap="round" opacity="0.8"/>
<line x1="361.2" y1="742.1" x2="355.2" y2="764.1" stroke="#4dabf7" stroke-width="4" stroke-linecap="round" opacity="0.8"/>
<line x1="203.8" y1="328.5" x2="197.8" y2="350.5" stroke="#4dabf7" stroke-width="4" stroke-linecap="round" opacity="0.8"/>
<line x1="703.4" y1="489.7" x2="697.4" y2="511.7" stroke="#4dabf7" stroke-width="4" stroke-linecap="round" opacity="0.8"/>
<line x1="214.4" y1="379.8" x2="208.4" y2="401.8" stroke="#4dabf7" stroke-width="4" stroke-linecap="round" opacity="0.8"/>
<line x1="382.8" y1="113.7" x2="376.8" y2="135.7" stroke="#4dabf7" stroke-width="4" stroke-linecap="round" opacity="0.8"/>
<line x1="302" y1="244.5" x2="296" y2="266.5" stroke="#4dabf7" stroke-width="4" stroke-linecap="round" opacity="0.8"/>
<line x1="643.8" y1="258.7" x2="637.8" y2="280.7" stroke="#4dabf7" stroke-width="4" stroke-linecap="round" opacity="0.8"/>
<line x1="527.4" y1="776.6" x2="521.4" y2="798.6" stroke="#4dabf7" stroke-width="4" stroke-linecap="round" opacity="0.8"/>
<line x1="738.5" y1="300.8" x2="732.5" y2="322.8" stroke="#4dabf7" stroke-width="4" stroke-linecap="round" opacity="0.8"/>
<line x1="482.4" y1="256.1" x2="476.4" y2="278.1" stroke="#4dabf7" stroke-width="4" stroke-linecap="round" opacity="0.8"/>
<line x1="318.6" y1="390.4" x2="312.6" y2="412.4" stroke="#4dabf7" stroke-width="4" stroke-linecap="round" opacity="0.8"/>
<line x1="634.8" y1="749.3" x2="628.8" y2="771.3" stroke="#4dabf7" stroke-width="4" stroke-linecap="round" opacity="0.8"/>
<line x1="232.6" y1="5" x2="226.6" y2="27" stroke="#4dabf7" stroke-width="4" stroke-linecap="round" opacity="0.8"/>
<line x1="359.5" y1="45.7" x2="353.5" y2="67.7" stroke="#4dabf7" stroke-width="4" stroke-linecap="round" opacity="0.8"/>
<line x1="24.1" y1="618.9" x2="18.1" y2="640.9" stroke="#4dabf7" stroke-width="4" stroke-linecap="round" opacity="0.8"/>
<line x1="89.7" y1="574.8" x2="83.7" y2="596.8" stroke="#4dabf7" stroke-width="4" stroke-linecap="round" opacity="0.8"/>
<line x1="289.6" y1="750.8" x2="283.6" y2="772.8" stroke="#4dabf7" stroke-width="4" stroke-linecap="round" opacity="0.8"/>
<line x1="682.8" y1="49.8" x2="676.8" y2="71.8" stroke="#4dabf7" stroke-width="4" stroke-linecap="round" opacity="0.8"/>
<line x1="154.1" y1="757.9" x2="148.1" y2="779.9" stroke="#4dabf7" stroke-width="4" stroke-linecap="round" opacity="0.8"/>
<line x1="490.7" y1="337.7" x2="484.7" y2="359.7" stroke="#4dabf7" stroke-width="4" stroke-linecap="round" opacity="0.8"/>
<line x1="625.8" y1="650.8" x2="619.8" y2="672.8" stroke="#4dabf7" stroke-width="4" stroke-linecap="round" opacity="0.8"/>
<line x1="393.4" y1="375.1" x2="387.4" y2="397.1" stroke="#4dabf7" stroke-width="4" stroke-linecap="round" opacity="0.8"/>
<line x1="80.1" y1="289.6" x2="74.1" y2="311.6" stroke="#4dabf7" stroke-width="4" stroke-linecap="round" opacity="0.8"/>
<line x1="116" y1="500.5" x2="110" y2="522.5" stroke="#4dabf7" stroke-width="4" stroke-linecap="round" opacity="0.8"/>
<line x1="485.3" y1="115.4" x2="479.3" y2="137.4" stroke="#4dabf7" stroke-width="4" stroke-linecap="round" opacity="0.8"/>
<line x1="502.4" y1="77.9" x2="496.4" y2="99.9" stroke="#4dabf7" stroke-width="4" stroke-linecap="round" opacity="0.8"/>
<line x1="84.3" y1="516.5" x2="78.3" y2="538.5" stroke="#4dabf7" stroke-width="4" stroke-linecap="round" opacity="0.8"/>
<line x1="370.2" y1="719.7" x2="364.2" y2="741.7" stroke="#4dabf7" stroke-width="4" stroke-linecap="round" opacity="0.8"/>
<line x1="503.4" y1="561.1" x2="497.4" y2="583.1" stroke="#4dabf7" stroke-width="4" stroke-linecap="round" opacity="0.8"/>
<line x1="101.6" y1="666.1" x2="95.6" y2="688.1" stroke="#4dabf7" stroke-width="4" stroke-linecap="round" opacity="0.8"/>
</svg>
