<svg xmlns="http://www.w3.org/2000/svg" viewBox="0 0 800 800" width="800" height="800">

<rect x="0" y="0" width="800" height="560" fill="#fff4e6"/>
<rect x="0" y="0" width="24" height="560" fill="#ffe8cc" opacity="0.35"/>
<rect x="60" y="0" width="24" height="560" fill="#ffe8cc" opacity="0.35"/>
<rect x="120" y="0" width="24" height="560" fill="#ffe8cc" opacity="0.35"/>
<rect x="180" y="0" width="24" height="560" fill="#ffe8cc" opacity="0.35"/>
<rect x="240" y="0" width="24" height="560" fill="#ffe8cc" opacity="0.35"/>
<rect x="300" y="0" width="24" height="560" fill="#ffe8cc" opacity="0.35"/>
<rect x="360" y="0" width="24" height="560" fill="#ffe8cc" opacity="0.35"/>
<rect x="420" y="0" width="24" height="560" fill="#ffe8cc" opacity="0.35"/>
<rect x="480" y="0" width="24" height="560" fill="#ffe8cc" opacity="0.35"/>
<rect x="540" y="0" width="24" height="560" fill="#ffe8cc" opacity="0.35"/>
<rect x="600" y="0" width="24" height="560" fill="#ffe8cc" opacity="0.35"/>
<rect x="660" y="0" width="24" height="560" fill="#ffe8cc" opacity="0.35"/>
<rect x="720" y="0" width="24" height="560" fill="#ffe8cc" opacity="0.35"/>
<rect x="780" y="0" width="24" height="560" fill="#ffe8cc" opacity="0.35"/>
<rect x="0" y="560" width="800" height="240" fill="#e8c39e"/>
<line x1="0" y1="610" x2="800" y2="610" stroke="#000" stroke-width="2" stroke-linecap="round" opacity="0.06"/>
<line x1="0" y1="660" x2="800" y2="660" stroke="#000" stroke-width="2" stroke-linecap="round" opacity="0.06"/>
<line x1="0" y1="710" x2="800" y2="710" stroke="#000" stroke-width="2" stroke-linecap="round" opacity="0.06"/>
<line x1="0" y1="760" x2="800" y2="760" stroke="#000" stroke-width="2" stroke-linecap="round" opacity="0.06"/>
<line x1="0" y1="810" x2="800" y2="810" stroke="#000" stroke-width="2" stroke-linecap="round" opacity="0.06"/>
<rect x="0" y="546" width="800" height="16" fill="#d9a066"/>
<g><rect x="72" y="132" width="176" height="166" rx="6" fill="#ffffff"/><rect x="80" y="140" width="160" height="150" fill="#a5d8ff"/><rect x="156" y="140" width="8" height="150" fill="#ffffff"/><rect x="80" y="211" width="160" height="8" fill="#ffffff"/><path d="M 60 126 L 110 126 Q 90 215.0 110 310 L 60 310 Z" fill="#f783ac"/><path d="M 260 126 L 210 126 Q 230 215.0 210 310 L 260 310 Z" fill="#f783ac"/><rect x="50" y="118" width="220" height="12" rx="6" fill="#adb5bd"/></g>
<g><rect x="274" y="550" width="16" height="140" fill="#c68642"/><rect x="650" y="550" width="16" height="140" fill="#c68642"/><rect x="260" y="532" width="420" height="22" rx="6" fill="#c68642"/><path d="M 250.0 530 L 690.0 530 L 696.0 580 L 244.0 580 Z" fill="#ffdeeb"/></g>
<g transform="translate(470 548) scale(1.3 1.3)"><polygon points="-34,14 34,14 26,-16" fill="#ffd43b"/><polygon points="-34,14 26,-16 22,-22 -38,8" fill="#fab005"/><circle cx="-8" cy="6" r="5" fill="#f59f00"/><circle cx="14" cy="2" r="4" fill="#f59f00"/><circle cx="20" cy="10" r="3" fill="#f59f00"/></g>
<g transform="translate(200 800) scale(1.3 1.3)"><g><ellipse cx="-54" cy="-128" rx="12" ry="13" fill="#8d5524"/><ellipse cx="-54" cy="-108" rx="12" ry="13" fill="#8d5524"/><ellipse cx="-54" cy="-88" rx="12" ry="13" fill="#8d5524"/><ellipse cx="-54" cy="-68" rx="12" ry="13" fill="#8d5524"/><polygon points="-48,-54 -60,-54 -54,-42" fill="#8d5524"/><rect x="-63" y="-66" width="18" height="8" rx="4" fill="#fa5252"/><ellipse cx="54" cy="-128" rx="12" ry="13" fill="#8d5524"/><ellipse cx="54" cy="-108" rx="12" ry="13" fill="#8d5524"/><ellipse cx="54" cy="-88" rx="12" ry="13" fill="#8d5524"/><ellipse cx="54" cy="-68" rx="12" ry="13" fill="#8d5524"/><polygon points="48,-54 60,-54 54,-42" fill="#8d5524"/><rect x="45" y="-66" width="18" height="8" rx="4" fill="#fa5252"/></g><ellipse cx="-16" cy="-6" rx="14" ry="8" fill="#ac5b78"/><ellipse cx="16" cy="-6" rx="14" ry="8" fill="#ac5b78"/><path d="M -26 -106 Q 0 -112 26 -106 L 32 -74 Q 60 -34 66 -12 Q 0 2 -66 -12 Q -60 -34 -32 -74 Z" fill="#f783ac"/><rect x="-32" y="-80" width="64" height="10" rx="5" fill="#d16f92"/><path d="M -28 -98 Q -48 -63 -52 -40" fill="none" stroke="#f783ac" stroke-width="14" stroke-linecap="round" stroke-linejoin="round"/><path d="M 28 -98 Q 65 -108 86 -130" fill="none" stroke="#f783ac" stroke-width="14" stroke-linecap="round" stroke-linejoin="round"/><circle cx="-52" cy="-40" r="10.5" fill="#f3c3a0"/><circle cx="86" cy="-130" r="10.5" fill="#f3c3a0"/><rect x="-9" y="-116" width="18" height="16" fill="#f3c3a0"/><circle cx="-49" cy="-148" r="11" fill="#f3c3a0"/><circle cx="49" cy="-148" r="11" fill="#f3c3a0"/><circle cx="0" cy="-150" r="50" fill="#f3c3a0"/><ellipse cx="-30" cy="-128" rx="11.7" ry="7.2" fill="#ff6b6b" opacity="0.6"/><ellipse cx="30" cy="-128" rx="11.7" ry="7.2" fill="#ff6b6b" opacity="0.6"/><ellipse cx="-15" cy="-150" rx="6.5" ry="8.5" fill="#2b2b3a"/><circle cx="-13" cy="-153" r="2.2" fill="#fff"/><ellipse cx="21" cy="-150" rx="6.5" ry="8.5" fill="#2b2b3a"/><circle cx="23" cy="-153" r="2.2" fill="#fff"/><line x1="-28" y1="-175" x2="-9" y2="-165" stroke="#2b2b3a" stroke-width="4.5" stroke-linecap="round"/><line x1="28" y1="-175" x2="9" y2="-165" stroke="#2b2b3a" stroke-width="4.5" stroke-linecap="round"/><path d="M -4 -134 Q 0 -130 4 -134" fill="none" stroke="#b69278" stroke-width="3" stroke-linecap="round" stroke-linejoin="round"/><path d="M -9.9 -115 Q 0 -122 9.9 -115" fill="none" stroke="#2b2b3a" stroke-width="4.2" stroke-linecap="round" stroke-linejoin="round"/><path d="M -54 -144 Q -60 -210 0 -210 Q 60 -210 54 -144 Q 50 -168 30 -178 Q 22 -164 4 -178 Q -12 -164 -24 -178 Q -46 -170 -54 -144 Z" fill="#8d5524"/><g transform="translate(36 -186) scale(0.8 0.8)"><line x1="0" y1="0" x2="0" y2="0" stroke="#40c057" stroke-width="5" stroke-linecap="round"/><ellipse cx="10" cy="0" rx="12" ry="5" fill="#51cf66" transform="rotate(-30 10 0)"/><circle cx="11" cy="0" r="10" fill="#ffd43b"/><circle cx="3.4" cy="10.5" r="10" fill="#ffd43b"/><circle cx="-8.9" cy="6.5" r="10" fill="#ffd43b"/><circle cx="-8.9" cy="-6.5" r="10" fill="#ffd43b"/><circle cx="3.4" cy="-10.5" r="10" fill="#ffd43b"/><circle cx="0" cy="0" r="8" fill="#ffd43b"/></g></g>
<g transform="translate(680 800)"><path d="M 28 -40 Q 80 -40 78 -95 Q 76 -120 92 -126" fill="none" stroke="#868e96" stroke-width="13" stroke-linecap="round" stroke-linejoin="round"/><ellipse cx="-21" cy="-9" rx="19" ry="11" fill="#71787f"/><ellipse cx="21" cy="-9" rx="19" ry="11" fill="#71787f"/><ellipse cx="0" cy="-62" rx="42" ry="52" fill="#868e96"/><ellipse cx="0" cy="-54" rx="27" ry="35" fill="#fff4e6"/><path d="M -32 -96 Q -50 -62 -52 -40" fill="none" stroke="#868e96" stroke-width="15" stroke-linecap="round" stroke-linejoin="round"/><path d="M 32 -96 Q 50 -62 52 -40" fill="none" stroke="#868e96" stroke-width="15" stroke-linecap="round" stroke-linejoin="round"/><circle cx="-52" cy="-40" r="11.5" fill="#868e96"/><circle cx="52" cy="-40" r="11.5" fill="#868e96"/><g><polygon points="-52,-170 -48,-228 -12,-200" fill="#868e96"/><polygon points="-44,-178 -43,-216 -20,-198" fill="#ffc9c9"/><polygon points="52,-170 48,-228 12,-200" fill="#868e96"/><polygon points="44,-178 43,-216 20,-198" fill="#ffc9c9"/><circle cx="0" cy="-150" r="55" fill="#868e96"/><ellipse cx="-36" cy="-128" rx="9" ry="5.5" fill="#ff8fab" opacity="0.7"/><ellipse cx="36" cy="-128" rx="9" ry="5.5" fill="#ff8fab" opacity="0.7"/><ellipse cx="-22" cy="-152" rx="8.5" ry="11.1" fill="#2b2b3a"/><circle cx="-20" cy="-155" r="2.9" fill="#fff"/><ellipse cx="16" cy="-152" rx="8.5" ry="11.1" fill="#2b2b3a"/><circle cx="18" cy="-155" r="2.9" fill="#fff"/><line x1="-29" y1="-168" x2="-10" y2="-176" stroke="#2b2b3a" stroke-width="3.5" stroke-linecap="round"/><line x1="29" y1="-168" x2="10" y2="-176" stroke="#2b2b3a" stroke-width="3.5" stroke-linecap="round"/><polygon points="-6,-134 6,-134 0,-127" fill="#ff8fab"/><rect x="-14" y="-125" width="28" height="12" rx="4" fill="#fff" stroke="#2b2b3a" stroke-width="2.5"/><line x1="-13" y1="-119" x2="13" y2="-119" stroke="#2b2b3a" stroke-width="1.5" stroke-linecap="round"/><line x1="-14" y1="-130" x2="-46" y2="-136" stroke="#868e96" stroke-width="2" stroke-linecap="round"/><line x1="-14" y1="-126" x2="-46" y2="-122" stroke="#868e96" stroke-width="2" stroke-linecap="round"/><line x1="14" y1="-130" x2="46" y2="-136" stroke="#868e96" stroke-width="2" stroke-linecap="round"/><line x1="14" y1="-126" x2="46" y2="-122" stroke="#868e96" stroke-width="2" stroke-linecap="round"/></g></g>
</svg>
