<svg xmlns="http://www.w3.org/2000/svg" viewBox="0 0 800 800" width="800" height="800">
<defs><linearGradient id="d1" x1="0" y1="0" x2="0" y2="1"><stop offset="0" stop-color="#a5d8ff"/><stop offset="1" stop-color="#fff0f6"/></linearGradient></defs>
<rect x="0" y="0" width="800" height="800" fill="url(#d1)"/>
<g transform="translate(150 110) scale(0.7 0.7)"><g><circle cx="-55" cy="10" r="38" fill="#ffffff"/><circle cx="-15" cy="-18" r="50" fill="#ffffff"/><circle cx="40" cy="-8" r="42" fill="#ffffff"/><circle cx="78" cy="18" r="30" fill="#ffffff"/><rect x="-95" y="5" width="200" height="50" rx="25" fill="#ffffff"/></g></g>
<g transform="translate(640 80) scale(0.8 0.8)"><g><circle cx="-55" cy="10" r="38" fill="#ffffff"/><circle cx="-15" cy="-18" r="50" fill="#ffffff"/><circle cx="40" cy="-8" r="42" fill="#ffffff"/><circle cx="78" cy="18" r="30" fill="#ffffff"/><rect x="-95" y="5" width="200" height="50" rx="25" fill="#ffffff"/></g></g>
<path d="M -151.7 560 Q 188.1 399.8 527.8 560 Z" fill="#b2f2bb"/>
<path d="M 25.5 560 Q 350.2 325 674.9 560 Z" fill="#b2f2bb"/>
<path d="M 432.6 560 Q 687 339.3 941.5 560 Z" fill="#b2f2bb"/>
<path d="M 0 600 Q 240.0 582 400.0 600 T 800 600 L 800 800 L 0 800 Z" fill="#8ce99a"/>
<path d="M 0 720 Q 320.0 702 560.0 720 T 1000 720 L 800 800 L 0 800 Z" fill="#69db7c"/>
<g transform="translate(470 760) scale(-0.9 0.9)"><rect x="-46" y="-44" width="12" height="44" rx="5" fill="#495057"/><rect x="-24" y="-44" width="12" height="44" rx="5" fill="#495057"/><rect x="16" y="-44" width="12" height="44" rx="5" fill="#495057"/><rect x="38" y="-44" width="12" height="44" rx="5" fill="#495057"/><circle cx="-50" cy="-72" r="30" fill="#f8f9fa"/><circle cx="-20" cy="-88" r="34" fill="#f8f9fa"/><circle cx="18" cy="-88" r="34" fill="#f8f9fa"/><circle cx="48" cy="-72" r="28" fill="#f8f9fa"/><circle cx="0" cy="-62" r="40" fill="#f8f9fa"/><circle cx="-30" cy="-56" r="26" fill="#f8f9fa"/><circle cx="32" cy="-56" r="26" fill="#f8f9fa"/><ellipse cx="80" cy="-92" rx="24" ry="30" fill="#495057" transform="rotate(-20 80 -92)"/><ellipse cx="62" cy="-112" rx="14" ry="7" fill="#495057" transform="rotate(-30 62 -112)"/><circle cx="70" cy="-116" r="14" fill="#f8f9fa"/><circle cx="88" cy="-98" r="5" fill="#fff"/><circle cx="89" cy="-98" r="2.6" fill="#2b2b3a"/></g>
<g transform="translate(600 780) scale(-0.9 0.9)"><rect x="-46" y="-44" width="12" height="44" rx="5" fill="#495057"/><rect x="-24" y="-44" width="12" height="44" rx="5" fill="#495057"/><rect x="16" y="-44" width="12" height="44" rx="5" fill="#495057"/><rect x="38" y="-44" width="12" height="44" rx="5" fill="#495057"/><circle cx="-50" cy="-72" r="30" fill="#f8f9fa"/><circle cx="-20" cy="-88" r="34" fill="#f8f9fa"/><circle cx="18" cy="-88" r="34" fill="#f8f9fa"/><circle cx="48" cy="-72" r="28" fill="#f8f9fa"/><circle cx="0" cy="-62" r="40" fill="#f8f9fa"/><circle cx="-30" cy="-56" r="26" fill="#f8f9fa"/><circle cx="32" cy="-56" r="26" fill="#f8f9fa"/><ellipse cx="80" cy="-92" rx="24" ry="30" fill="#495057" transform="rotate(-20 80 -92)"/><ellipse cx="62" cy="-112" rx="14" ry="7" fill="#495057" transform="rotate(-30 62 -112)"/><circle cx="70" cy="-116" r="14" fill="#f8f9fa"/><circle cx="88" cy="-98" r="5" fill="#fff"/><circle cx="89" cy="-98" r="2.6" fill="#2b2b3a"/></g>
<g transform="translate(720 760) scale(-0.9 0.9)"><rect x="-46" y="-44" width="12" height="44" rx="5" fill="#495057"/><rect x="-24" y="-44" width="12" height="44" rx="5" fill="#495057"/><rect x="16" y="-44" width="12" height="44" rx="5" fill="#495057"/><rect x="38" y="-44" width="12" height="44" rx="5" fill="#495057"/><circle cx="-50" cy="-72" r="30" fill="#f8f9fa"/><circle cx="-20" cy="-88" r="34" fill="#f8f9fa"/><circle cx="18" cy="-88" r="34" fill="#f8f9fa"/><circle cx="48" cy="-72" r="28" fill="#f8f9fa"/><circle cx="0" cy="-62" r="40" fill="#f8f9fa"/><circle cx="-30" cy="-56" r="26" fill="#f8f9fa"/><circle cx="32" cy="-56" r="26" fill="#f8f9fa"/><ellipse cx="80" cy="-92" rx="24" ry="30" fill="#495057" transform="rotate(-20 80 -92)"/><ellipse cx="62" cy="-112" rx="14" ry="7" fill="#495057" transform="rotate(-30 62 -112)"/><circle cx="70" cy="-116" r="14" fill="#f8f9fa"/><circle cx="88" cy="-98" r="5" fill="#fff"/><circle cx="89" cy="-98" r="2.6" fill="#2b2b3a"/></g>
<g transform="translate(260 790) scale(1.4 1.4)"><g><ellipse cx="-54" cy="-128" rx="12" ry="13" fill="#8d5524"/><ellipse cx="-54" cy="-108" rx="12" ry="13" fill="#8d5524"/><ellipse cx="-54" cy="-88" rx="12" ry="13" fill="#8d5524"/><ellipse cx="-54" cy="-68" rx="12" ry="13" fill="#8d5524"/><polygon points="-48,-54 -60,-54 -54,-42" fill="#8d5524"/><rect x="-63" y="-66" width="18" height="8" rx="4" fill="#fa5252"/><ellipse cx="54" cy="-128" rx="12" ry="13" fill="#8d5524"/><ellipse cx="54" cy="-108" rx="12" ry="13" fill="#8d5524"/><ellipse cx="54" cy="-88" rx="12" ry="13" fill="#8d5524"/><ellipse cx="54" cy="-68" rx="12" ry="13" fill="#8d5524"/><polygon points="48,-54 60,-54 54,-42" fill="#8d5524"/><rect x="45" y="-66" width="18" height="8" rx="4" fill="#fa5252"/></g><ellipse cx="-16" cy="-6" rx="14" ry="8" fill="#ac5b78"/><ellipse cx="16" cy="-6" rx="14" ry="8" fill="#ac5b78"/><path d="M -26 -106 Q 0 -112 26 -106 L 32 -74 Q 60 -34 66 -12 Q 0 2 -66 -12 Q -60 -34 -32 -74 Z" fill="#f783ac"/><rect x="-32" y="-80" width="64" height="10" rx="5" fill="#d16f92"/><path d="M -28 -98 Q -48 -63 -52 -40" fill="none" stroke="#f783ac" stroke-width="14" stroke-linecap="round" stroke-linejoin="round"/><path d="M 28 -98 Q 56 -116 68 -146" fill="none" stroke="#f783ac" stroke-width="14" stroke-linecap="round" stroke-linejoin="round"/><line x1="68" y1="-146" x2="80" y2="20" stroke="#a0693a" stroke-width="8" stroke-linecap="round"/><line x1="68" y1="-149" x2="80" y2="17" stroke="#80542e" stroke-width="3" stroke-linecap="round" opacity="0.5"/><circle cx="-52" cy="-40" r="10.5" fill="#f3c3a0"/><circle cx="68" cy="-146" r="10.5" fill="#f3c3a0"/><rect x="-9" y="-116" width="18" height="16" fill="#f3c3a0"/><circle cx="-49" cy="-148" r="11" fill="#f3c3a0"/><circle cx="49" cy="-148" r="11" fill="#f3c3a0"/><circle cx="0" cy="-150" r="50" fill="#f3c3a0"/><ellipse cx="-30" cy="-128" rx="9" ry="5.5" fill="#ff8fab" opacity="0.6"/><ellipse cx="30" cy="-128" rx="9" ry="5.5" fill="#ff8fab" opacity="0.6"/><path d="M -26 -147 Q -18 -159 -10 -147" fill="none" stroke="#2b2b3a" stroke-width="3.8" stroke-linecap="round" stroke-linejoin="round"/><path d="M 10 -147 Q 18 -159 26 -147" fill="none" stroke="#2b2b3a" stroke-width="3.8" stroke-linecap="round" stroke-linejoin="round"/><path d="M -4 -134 Q 0 -130 4 -134" fill="none" stroke="#b69278" stroke-width="3" stroke-linecap="round" stroke-linejoin="round"/><ellipse cx="0" cy="-117" rx="5.5" ry="7.5" fill="#2b2b3a"/><path d="M -54 -144 Q -60 -210 0 -210 Q 60 -210 54 -144 Q 50 -168 30 -178 Q 22 -164 4 -178 Q -12 -164 -24 -178 Q -46 -170 -54 -144 Z" fill="#8d5524"/><g transform="translate(36 -186) scale(0.8 0.8)"><line x1="0" y1="0" x2="0" y2="0" stroke="#40c057" stroke-width="5" stroke-linecap="round"/><ellipse cx="10" cy="0" rx="12" ry="5" fill="#51cf66" transform="rotate(-30 10 0)"/><circle cx="11" cy="0" r="10" fill="#ffd43b"/><circle cx="3.4" cy="10.5" r="10" fill="#ffd43b"/><circle cx="-8.9" cy="6.5" r="10" fill="#ffd43b"/><circle cx="-8.9" cy="-6.5" r="10" fill="#ffd43b"/><circle cx="3.4" cy="-10.5" r="10" fill="#ffd43b"/><circle cx="0" cy="0" r="8" fill="#ffd43b"/></g></g>
<g><g transform="translate(366.2 334.5) rotate(-11) scale(0.8 0.8)"><ellipse cx="0" cy="0" rx="11" ry="8" fill="#f783ac" transform="rotate(-20 0 0)"/><line x1="9" y1="-2" x2="9" y2="-42" stroke="#f783ac" stroke-width="4" stroke-linecap="round"/><path d="M 9 -42 Q 26 -34 24 -16" fill="none" stroke="#f783ac" stroke-width="4" stroke-linecap="round" stroke-linejoin="round"/></g><g transform="translate(408.8 309.5) scale(0.56 0.56)"><ellipse cx="0" cy="0" rx="9" ry="7" fill="#f783ac" transform="rotate(-20 0 0)"/><line x1="8" y1="-2" x2="8" y2="-34" stroke="#f783ac" stroke-width="3.5" stroke-linecap="round"/><path d="M 8 -34 Q 20 -28 20 -16" fill="none" stroke="#f783ac" stroke-width="3.5" stroke-linecap="round" stroke-linejoin="round"/><ellipse cx="34" cy="10" rx="9" ry="7" fill="#f783ac" transform="rotate(-20 34 10)"/><ellipse cx="64" cy="2" rx="9" ry="7" fill="#f783ac" transform="rotate(-20 64 2)"/><line x1="42" y1="8" x2="42" y2="-24" stroke="#f783ac" stroke-width="3.5" stroke-linecap="round"/><line x1="72" y1="0" x2="72" y2="-32" stroke="#f783ac" stroke-width="3.5" stroke-linecap="round"/><line x1="42" y1="-24" x2="72" y2="-32" stroke="#f783ac" stroke-width="6" stroke-linecap="round"/></g><g transform="translate(511.2 250.5) rotate(10.4) scale(0.8 0.8)"><ellipse cx="0" cy="0" rx="11" ry="8" fill="#f783ac" transform="rotate(-20 0 0)"/><line x1="9" y1="-2" x2="9" y2="-42" stroke="#f783ac" stroke-width="4" stroke-linecap="round"/><path d="M 9 -42 Q 26 -34 24 -16" fill="none" stroke="#f783ac" stroke-width="4" stroke-linecap="round" stroke-linejoin="round"/></g><g transform="translate(553.8 225.5) scale(0.56 0.56)"><ellipse cx="0" cy="0" rx="9" ry="7" fill="#f783ac" transform="rotate(-20 0 0)"/><line x1="8" y1="-2" x2="8" y2="-34" stroke="#f783ac" stroke-width="3.5" stroke-linecap="round"/><path d="M 8 -34 Q 20 -28 20 -16" fill="none" stroke="#f783ac" stroke-width="3.5" stroke-linecap="round" stroke-linejoin="round"/><ellipse cx="34" cy="10" rx="9" ry="7" fill="#f783ac" transform="rotate(-20 34 10)"/><ellipse cx="64" cy="2" rx="9" ry="7" fill="#f783ac" transform="rotate(-20 64 2)"/><line x1="42" y1="8" x2="42" y2="-24" stroke="#f783ac" stroke-width="3.5" stroke-linecap="round"/><line x1="72" y1="0" x2="72" y2="-32" stroke="#f783ac" stroke-width="3.5" stroke-linecap="round"/><line x1="42" y1="-24" x2="72" y2="-32" stroke="#f783ac" stroke-width="6" stroke-linecap="round"/></g></g>
</svg>
