<svg xmlns="http://www.w3.org/2000/svg" viewBox="0 0 800 800" width="800" height="800">

<rect x="0" y="0" width="800" height="600" fill="#ebfbee"/>
<rect x="0" y="0" width="24" height="600" fill="#d3f9d8" opacity="0.35"/>
<rect x="60" y="0" width="24" height="600" fill="#d3f9d8" opacity="0.35"/>
<rect x="120" y="0" width="24" height="600" fill="#d3f9d8" opacity="0.35"/>
<rect x="180" y="0" width="24" height="600" fill="#d3f9d8" opacity="0.35"/>
<rect x="240" y="0" width="24" height="600" fill="#d3f9d8" opacity="0.35"/>
<rect x="300" y="0" width="24" height="600" fill="#d3f9d8" opacity="0.35"/>
<rect x="360" y="0" width="24" height="600" fill="#d3f9d8" opacity="0.35"/>
<rect x="420" y="0" width="24" height="600" fill="#d3f9d8" opacity="0.35"/>
<rect x="480" y="0" width="24" height="600" fill="#d3f9d8" opacity="0.35"/>
<rect x="540" y="0" width="24" height="600" fill="#d3f9d8" opacity="0.35"/>
<rect x="600" y="0" width="24" height="600" fill="#d3f9d8" opacity="0.35"/>
<rect x="660" y="0" width="24" height="600" fill="#d3f9d8" opacity="0.35"/>
<rect x="720" y="0" width="24" height="600" fill="#d3f9d8" opacity="0.35"/>
<rect x="780" y="0" width="24" height="600" fill="#d3f9d8" opacity="0.35"/>
<rect x="0" y="600" width="800" height="200" fill="#e8c39e"/>
<line x1="0" y1="650" x2="800" y2="650" stroke="#000" stroke-width="2" stroke-linecap="round" opacity="0.06"/>
<line x1="0" y1="700" x2="800" y2="700" stroke="#000" stroke-width="2" stroke-linecap="round" opacity="0.06"/>
<line x1="0" y1="750" x2="800" y2="750" stroke="#000" stroke-width="2" stroke-linecap="round" opacity="0.06"/>
<line x1="0" y1="800" x2="800" y2="800" stroke="#000" stroke-width="2" stroke-linecap="round" opacity="0.06"/>
<line x1="0" y1="850" x2="800" y2="850" stroke="#000" stroke-width="2" stroke-linecap="round" opacity="0.06"/>
<rect x="0" y="586" width="800" height="16" fill="#d9a066"/>
<g><rect x="552" y="82" width="186" height="166" rx="6" fill="#ffffff"/><rect x="560" y="90" width="170" height="150" fill="#a5d8ff"/><rect x="641" y="90" width="8" height="150" fill="#ffffff"/><rect x="560" y="161" width="170" height="8" fill="#ffffff"/><path d="M 540 76 L 590 76 Q 570 165.0 590 260 L 540 260 Z" fill="#ffa94d"/><path d="M 750 76 L 700 76 Q 720 165.0 700 260 L 750 260 Z" fill="#ffa94d"/><rect x="530" y="68" width="230" height="12" rx="6" fill="#adb5bd"/></g>
<g><rect x="130" y="150" width="120" height="100" rx="4" fill="#c68642"/><rect x="140" y="160" width="100" height="80" fill="#ffd8a8"/><path d="M 140 240 L 178.0 195.0 L 202.0 220.0 L 220.0 200.0 L 240 240 Z" fill="#51cf66"/></g>
<g transform="translate(211.3 277.7) rotate(8.3) scale(0.848 0.848)"><polygon points="-22,0 -44,-18 -44,18" fill="#ff9797"/><polygon points="22,0 44,-18 44,18" fill="#ff9797"/><ellipse cx="0" cy="0" rx="26" ry="20" fill="#ff6b6b"/><path d="M -10 -12 Q 0 0 -10 12 M 4 -14 Q 14 0 4 14" fill="none" stroke="#fff" stroke-width="4" stroke-linecap="round" stroke-linejoin="round" opacity="0.8"/></g>
<g transform="translate(490.5 86.2) rotate(27) scale(0.705 0.705)"><polygon points="-22,0 -44,-18 -44,18" fill="#fcd55e"/><polygon points="22,0 44,-18 44,18" fill="#fcd55e"/><ellipse cx="0" cy="0" rx="26" ry="20" fill="#fcc419"/><path d="M -10 -12 Q 0 0 -10 12 M 4 -14 Q 14 0 4 14" fill="none" stroke="#fff" stroke-width="4" stroke-linecap="round" stroke-linejoin="round" opacity="0.8"/></g>
<g transform="translate(226.7 153.7) rotate(-2.4) scale(1.098 1.098)"><polygon points="-22,0 -44,-18 -44,18" fill="#85dd93"/><polygon points="22,0 44,-18 44,18" fill="#85dd93"/><ellipse cx="0" cy="0" rx="26" ry="20" fill="#51cf66"/><path d="M -10 -12 Q 0 0 -10 12 M 4 -14 Q 14 0 4 14" fill="none" stroke="#fff" stroke-width="4" stroke-linecap="round" stroke-linejoin="round" opacity="0.8"/></g>
<g transform="translate(642.3 250.5) rotate(-28) scale(0.956 0.956)"><polygon points="-22,0 -44,-18 -44,18" fill="#70b8f4"/><polygon points="22,0 44,-18 44,18" fill="#70b8f4"/><ellipse cx="0" cy="0" rx="26" ry="20" fill="#339af0"/><path d="M -10 -12 Q 0 0 -10 12 M 4 -14 Q 14 0 4 14" fill="none" stroke="#fff" stroke-width="4" stroke-linecap="round" stroke-linejoin="round" opacity="0.8"/></g>
<g transform="translate(497.1 407.2) rotate(19.3) scale(0.909 0.909)"><polygon points="-22,0 -44,-18 -44,18" fill="#db8dee"/><polygon points="22,0 44,-18 44,18" fill="#db8dee"/><ellipse cx="0" cy="0" rx="26" ry="20" fill="#cc5de8"/><path d="M -10 -12 Q 0 0 -10 12 M 4 -14 Q 14 0 4 14" fill="none" stroke="#fff" stroke-width="4" stroke-linecap="round" stroke-linejoin="round" opacity="0.8"/></g>
<g transform="translate(523.4 85.6) rotate(7.3) scale(1.003 1.003)"><polygon points="-22,0 -44,-18 -44,18" fill="#ffb26a"/><polygon points="22,0 44,-18 44,18" fill="#ffb26a"/><ellipse cx="0" cy="0" rx="26" ry="20" fill="#ff922b"/><path d="M -10 -12 Q 0 0 -10 12 M 4 -14 Q 14 0 4 14" fill="none" stroke="#fff" stroke-width="4" stroke-linecap="round" stroke-linejoin="round" opacity="0.8"/></g>
<g transform="translate(256.9 72.4) rotate(-2.2) scale(1.046 1.046)"><polygon points="-22,0 -44,-18 -44,18" fill="#ff9797"/><polygon points="22,0 44,-18 44,18" fill="#ff9797"/><ellipse cx="0" cy="0" rx="26" ry="20" fill="#ff6b6b"/><path d="M -10 -12 Q 0 0 -10 12 M 4 -14 Q 14 0 4 14" fill="none" stroke="#fff" stroke-width="4" stroke-linecap="round" stroke-linejoin="round" opacity="0.8"/></g>
<g transform="translate(557.6 411.5) rotate(33.7) scale(0.986 0.986)"><polygon points="-22,0 -44,-18 -44,18" fill="#fcd55e"/><polygon points="22,0 44,-18 44,18" fill="#fcd55e"/><ellipse cx="0" cy="0" rx="26" ry="20" fill="#fcc419"/><path d="M -10 -12 Q 0 0 -10 12 M 4 -14 Q 14 0 4 14" fill="none" stroke="#fff" stroke-width="4" stroke-linecap="round" stroke-linejoin="round" opacity="0.8"/></g>
<g transform="translate(324.4 380.4) rotate(34.8) scale(0.878 0.878)"><polygon points="-22,0 -44,-18 -44,18" fill="#85dd93"/><polygon points="22,0 44,-18 44,18" fill="#85dd93"/><ellipse cx="0" cy="0" rx="26" ry="20" fill="#51cf66"/><path d="M -10 -12 Q 0 0 -10 12 M 4 -14 Q 14 0 4 14" fill="none" stroke="#fff" stroke-width="4" stroke-linecap="round" stroke-linejoin="round" opacity="0.8"/></g>
<g transform="translate(672.8 99) rotate(-22.6) scale(0.754 0.754)"><polygon points="-22,0 -44,-18 -44,18" fill="#70b8f4"/><polygon points="22,0 44,-18 44,18" fill="#70b8f4"/><ellipse cx="0" cy="0" rx="26" ry="20" fill="#339af0"/><path d="M -10 -12 Q 0 0 -10 12 M 4 -14 Q 14 0 4 14" fill="none" stroke="#fff" stroke-width="4" stroke-linecap="round" stroke-linejoin="round" opacity="0.8"/></g>
<g transform="translate(735.1 234.5) rotate(-15.9) scale(0.951 0.951)"><polygon points="-22,0 -44,-18 -44,18" fill="#db8dee"/><polygon points="22,0 44,-18 44,18" fill="#db8dee"/><ellipse cx="0" cy="0" rx="26" ry="20" fill="#cc5de8"/><path d="M -10 -12 Q 0 0 -10 12 M 4 -14 Q 14 0 4 14" fill="none" stroke="#fff" stroke-width="4" stroke-linecap="round" stroke-linejoin="round" opacity="0.8"/></g>
<g transform="translate(405.2 214.3) rotate(6.8) scale(0.84 0.84)"><polygon points="-22,0 -44,-18 -44,18" fill="#ffb26a"/><polygon points="22,0 44,-18 44,18" fill="#ffb26a"/><ellipse cx="0" cy="0" rx="26" ry="20" fill="#ff922b"/><path d="M -10 -12 Q 0 0 -10 12 M 4 -14 Q 14 0 4 14" fill="none" stroke="#fff" stroke-width="4" stroke-linecap="round" stroke-linejoin="round" opacity="0.8"/></g>
<g transform="translate(260 790) scale(1.35 1.35)"><circle cx="0" cy="-210" r="26" fill="#2b2b3a"/><ellipse cx="-16" cy="-6" rx="14" ry="8" fill="#a13359"/><ellipse cx="16" cy="-6" rx="14" ry="8" fill="#a13359"/><path d="M -26 -106 Q 0 -112 26 -106 L 32 -74 Q 60 -34 66 -12 Q 0 2 -66 -12 Q -60 -34 -32 -74 Z" fill="#e64980"/><rect x="-32" y="-80" width="64" height="10" rx="5" fill="#c33e6c"/><path d="M -28 -98 Q -66 -97 -88 -108" fill="none" stroke="#e64980" stroke-width="14" stroke-linecap="round" stroke-linejoin="round"/><path d="M 28 -98 Q 66 -97 88 -108" fill="none" stroke="#e64980" stroke-width="14" stroke-linecap="round" stroke-linejoin="round"/><circle cx="-88" cy="-108" r="10.5" fill="#a86a3f"/><circle cx="88" cy="-108" r="10.5" fill="#a86a3f"/><rect x="-9" y="-116" width="18" height="16" fill="#a86a3f"/><circle cx="-49" cy="-148" r="11" fill="#a86a3f"/><circle cx="49" cy="-148" r="11" fill="#a86a3f"/><circle cx="0" cy="-150" r="50" fill="#a86a3f"/><ellipse cx="-30" cy="-128" rx="9" ry="5.5" fill="#ff8fab" opacity="0.6"/><ellipse cx="30" cy="-128" rx="9" ry="5.5" fill="#ff8fab" opacity="0.6"/><path d="M -26 -147 Q -18 -159 -10 -147" fill="none" stroke="#2b2b3a" stroke-width="3.8" stroke-linecap="round" stroke-linejoin="round"/><path d="M 10 -147 Q 18 -159 26 -147" fill="none" stroke="#2b2b3a" stroke-width="3.8" stroke-linecap="round" stroke-linejoin="round"/><path d="M -4 -134 Q 0 -130 4 -134" fill="none" stroke="#7e4f2f" stroke-width="3" stroke-linecap="round" stroke-linejoin="round"/><path d="M -10.8 -121 Q 0 -109 10.8 -121" fill="none" stroke="#2b2b3a" stroke-width="3.8" stroke-linecap="round" stroke-linejoin="round"/><path d="M -54 -144 Q -60 -210 0 -210 Q 60 -210 54 -144 Q 50 -168 30 -178 Q 22 -164 4 -178 Q -12 -164 -24 -178 Q -46 -170 -54 -144 Z" fill="#2b2b3a"/><circle cx="0" cy="-210" r="26" fill="#2b2b3a"/></g>
<g transform="translate(520 790) scale(1.1 1.1)"><g><circle cx="-50.7" cy="-131.5" r="20" fill="#2b2b3a"/><circle cx="-54" cy="-150" r="20" fill="#2b2b3a"/><circle cx="-50.7" cy="-168.5" r="20" fill="#2b2b3a"/><circle cx="-41.4" cy="-184.7" r="20" fill="#2b2b3a"/><circle cx="-27" cy="-196.8" r="20" fill="#2b2b3a"/><circle cx="-9.4" cy="-203.2" r="20" fill="#2b2b3a"/><circle cx="9.4" cy="-203.2" r="20" fill="#2b2b3a"/><circle cx="27" cy="-196.8" r="20" fill="#2b2b3a"/><circle cx="41.4" cy="-184.7" r="20" fill="#2b2b3a"/><circle cx="50.7" cy="-168.5" r="20" fill="#2b2b3a"/><circle cx="54" cy="-150" r="20" fill="#2b2b3a"/><circle cx="50.7" cy="-131.5" r="20" fill="#2b2b3a"/><circle cx="-56" cy="-110" r="18" fill="#2b2b3a"/><circle cx="-50" cy="-90" r="15" fill="#2b2b3a"/><circle cx="56" cy="-110" r="18" fill="#2b2b3a"/><circle cx="50" cy="-90" r="15" fill="#2b2b3a"/></g><rect x="-26" y="-52" width="20" height="46" rx="8" fill="#1971c2"/><rect x="6" y="-52" width="20" height="46" rx="8" fill="#1971c2"/><ellipse cx="-17" cy="-6" rx="16" ry="9" fill="#b08911"/><ellipse cx="17" cy="-6" rx="16" ry="9" fill="#b08911"/><path d="M -32 -106 Q 0 -112 32 -106 L 40 -46 Q 0 -36 -40 -46 Z" fill="#fcc419"/><rect x="-38" y="-62" width="76" height="10" rx="5" fill="#bd9312"/><path d="M -28 -98 Q -57 -125.5 -70 -165" fill="none" stroke="#fcc419" stroke-width="14" stroke-linecap="round" stroke-linejoin="round"/><path d="M 28 -98 Q 57 -125.5 70 -165" fill="none" stroke="#fcc419" stroke-width="14" stroke-linecap="round" stroke-linejoin="round"/><circle cx="-70" cy="-165" r="10.5" fill="#a86a3f"/><circle cx="70" cy="-165" r="10.5" fill="#a86a3f"/><rect x="-9" y="-116" width="18" height="16" fill="#a86a3f"/><circle cx="-49" cy="-148" r="11" fill="#a86a3f"/><circle cx="49" cy="-148" r="11" fill="#a86a3f"/><circle cx="0" cy="-150" r="50" fill="#a86a3f"/><ellipse cx="-30" cy="-128" rx="9" ry="5.5" fill="#ff8fab" opacity="0.6"/><ellipse cx="30" cy="-128" rx="9" ry="5.5" fill="#ff8fab" opacity="0.6"/><path d="M -26 -147 Q -18 -159 -10 -147" fill="none" stroke="#2b2b3a" stroke-width="3.8" stroke-linecap="round" stroke-linejoin="round"/><path d="M 10 -147 Q 18 -159 26 -147" fill="none" stroke="#2b2b3a" stroke-width="3.8" stroke-linecap="round" stroke-linejoin="round"/><path d="M -4 -134 Q 0 -130 4 -134" fill="none" stroke="#7e4f2f" stroke-width="3" stroke-linecap="round" stroke-linejoin="round"/><path d="M -10.8 -121 Q 0 -109 10.8 -121" fill="none" stroke="#2b2b3a" stroke-width="3.8" stroke-linecap="round" stroke-linejoin="round"/><ellipse cx="5" cy="-112" rx="5.5" ry="7" fill="#ff8787" stroke="#2b2b3a" stroke-width="1.5"/><g><circle cx="-42.5" cy="-170.4" r="19" fill="#2b2b3a"/><circle cx="-33.7" cy="-185.7" r="19" fill="#2b2b3a"/><circle cx="-18.6" cy="-196.3" r="19" fill="#2b2b3a"/><circle cx="0" cy="-200" r="19" fill="#2b2b3a"/><circle cx="18.6" cy="-196.3" r="19" fill="#2b2b3a"/><circle cx="33.7" cy="-185.7" r="19" fill="#2b2b3a"/><circle cx="42.5" cy="-170.4" r="19" fill="#2b2b3a"/></g></g>
</svg>
