<svg xmlns="http://www.w3.org/2000/svg" viewBox="0 0 800 800" width="800" height="800">
<defs><linearGradient id="d5" x1="0" y1="0" x2="0" y2="1"><stop offset="0" stop-color="#a5d8ff"/><stop offset="1" stop-color="#fff9db"/></linearGradient></defs>
<rect x="0" y="0" width="800" height="800" fill="url(#d5)"/>
<rect x="0" y="600" width="800" height="200" fill="#e9d8b4"/>
<rect x="0" y="580" width="800" height="24" fill="#cbb58a"/>
<rect x="0" y="540" width="60" height="44" fill="#e9d8b4"/>
<rect x="100" y="540" width="60" height="44" fill="#e9d8b4"/>
<rect x="200" y="540" width="60" height="44" fill="#e9d8b4"/>
<rect x="300" y="540" width="60" height="44" fill="#e9d8b4"/>
<rect x="400" y="540" width="60" height="44" fill="#e9d8b4"/>
<rect x="500" y="540" width="60" height="44" fill="#e9d8b4"/>
<rect x="600" y="540" width="60" height="44" fill="#e9d8b4"/>
<rect x="700" y="540" width="60" height="44" fill="#e9d8b4"/>
<g transform="translate(560 460) scale(0.35 0.35)"><rect x="0" y="-30" width="680" height="40" fill="#e9d8b4"/><rect x="0" y="-44" width="680" height="16" fill="#cbb58a"/><rect x="10" y="0" width="150" height="170" fill="#e9d8b4"/><path d="M 30 170 L 30 80 Q 85.0 10 140 80 L 140 170 Z" fill="#1c7ed6"/><polygon points="-14,170 -14,60 10,40 34,60 34,170" fill="#cbb58a"/><rect x="180" y="0" width="150" height="170" fill="#e9d8b4"/><path d="M 200 170 L 200 80 Q 255.0 10 310 80 L 310 170 Z" fill="#1c7ed6"/><polygon points="156,170 156,60 180,40 204,60 204,170" fill="#cbb58a"/><rect x="350" y="0" width="150" height="170" fill="#e9d8b4"/><path d="M 370 170 L 370 80 Q 425.0 10 480 80 L 480 170 Z" fill="#1c7ed6"/><polygon points="326,170 326,60 350,40 374,60 374,170" fill="#cbb58a"/><rect x="520" y="0" width="150" height="170" fill="#e9d8b4"/><path d="M 540 170 L 540 80 Q 595.0 10 650 80 L 650 170 Z" fill="#1c7ed6"/><polygon points="496,170 496,60 520,40 544,60 544,170" fill="#cbb58a"/><polygon points="670,-44 700,-30 685,-10 705,10 670,170 670,-44" fill="#e9d8b4"/><rect x="170" y="-150" width="110" height="110" fill="#e9d8b4"/><polygon points="160,-146 225,-210 290,-146" fill="#e8590c"/><path d="M 210 -40 L 210 -90 Q 225 -110 240 -90 L 240 -40 Z" fill="#8d5524"/><rect x="214" y="-250" width="24" height="50" fill="#e9d8b4"/><polygon points="208,-246 226,-276 244,-246" fill="#e8590c"/></g>
<g transform="translate(230 780) scale(1.4 1.4)"><rect x="-26" y="-52" width="20" height="46" rx="8" fill="#212529"/><rect x="6" y="-52" width="20" height="46" rx="8" fill="#212529"/><ellipse cx="-17" cy="-6" rx="16" ry="9" fill="#206e2f"/><ellipse cx="17" cy="-6" rx="16" ry="9" fill="#206e2f"/><path d="M -32 -106 Q 0 -112 32 -106 L 40 -46 Q 0 -36 -40 -46 Z" fill="#2f9e44"/><rect x="-38" y="-62" width="76" height="10" rx="5" fill="#237633"/><path d="M -30 -108 Q 0 -86 30 -108 Q 0 -96 -30 -108 Z" fill="#fff"/><path d="M -28 -98 Q -48 -63 -52 -40" fill="none" stroke="#2f9e44" stroke-width="14" stroke-linecap="round" stroke-linejoin="round"/><path d="M 28 -98 Q 64 -89 84 -92" fill="none" stroke="#2f9e44" stroke-width="14" stroke-linecap="round" stroke-linejoin="round"/><g transform="translate(60 -96) scale(0.8 0.8)"><rect x="0" y="-6" width="130" height="12" rx="5" fill="#ffd43b"/><polygon points="120,-8 180,-34 180,34 120,8" fill="#ffd43b"/><ellipse cx="180" cy="0" rx="8" ry="34" fill="#e67700"/><rect x="40" y="-26" width="12" height="22" fill="#ffd43b"/><rect x="62" y="-26" width="12" height="22" fill="#ffd43b"/><rect x="84" y="-26" width="12" height="22" fill="#ffd43b"/></g><circle cx="-52" cy="-40" r="10.5" fill="#f3c3a0"/><circle cx="84" cy="-92" r="10.5" fill="#f3c3a0"/><rect x="-9" y="-116" width="18" height="16" fill="#f3c3a0"/><circle cx="-49" cy="-148" r="11" fill="#f3c3a0"/><circle cx="49" cy="-148" r="11" fill="#f3c3a0"/><circle cx="0" cy="-150" r="50" fill="#f3c3a0"/><ellipse cx="-30" cy="-128" rx="9" ry="5.5" fill="#ff8fab" opacity="0.6"/><ellipse cx="30" cy="-128" rx="9" ry="5.5" fill="#ff8fab" opacity="0.6"/><path d="M -26 -151 Q -18 -143 -10 -151" fill="none" stroke="#2b2b3a" stroke-width="3.8" stroke-linecap="round" stroke-linejoin="round"/><path d="M 10 -151 Q 18 -143 26 -151" fill="none" stroke="#2b2b3a" stroke-width="3.8" stroke-linecap="round" stroke-linejoin="round"/><path d="M -4 -134 Q 0 -130 4 -134" fill="none" stroke="#b69278" stroke-width="3" stroke-linecap="round" stroke-linejoin="round"/><circle cx="0" cy="-118" r="5" fill="#2b2b3a"/><path d="M -52 -146 Q -58 -208 0 -208 Q 58 -208 52 -146 Q 46 -170 24 -176 Q 30 -186 18 -188 Q 6 -174 -20 -178 Q -44 -174 -52 -146 Z" fill="#8d5524"/></g>
<g transform="translate(560 780) scale(1.4 1.4)"><rect x="-26" y="-52" width="20" height="46" rx="8" fill="#212529"/><rect x="6" y="-52" width="20" height="46" rx="8" fill="#212529"/><ellipse cx="-17" cy="-6" rx="16" ry="9" fill="#af7b03"/><ellipse cx="17" cy="-6" rx="16" ry="9" fill="#af7b03"/><path d="M -32 -106 Q 0 -112 32 -106 L 40 -46 Q 0 -36 -40 -46 Z" fill="#fab005"/><rect x="-38" y="-62" width="76" height="10" rx="5" fill="#bb8403"/><path d="M -30 -108 Q 0 -86 30 -108 Q 0 -96 -30 -108 Z" fill="#fff"/><path d="M -28 -98 Q -19 -80 -26 -74" fill="none" stroke="#fab005" stroke-width="14" stroke-linecap="round" stroke-linejoin="round"/><path d="M 28 -98 Q 19 -80 26 -74" fill="none" stroke="#fab005" stroke-width="14" stroke-linecap="round" stroke-linejoin="round"/><circle cx="-26" cy="-74" r="10.5" fill="#6f4428"/><circle cx="26" cy="-74" r="10.5" fill="#6f4428"/><rect x="-9" y="-116" width="18" height="16" fill="#6f4428"/><circle cx="-49" cy="-148" r="11" fill="#6f4428"/><circle cx="49" cy="-148" r="11" fill="#6f4428"/><circle cx="0" cy="-150" r="50" fill="#6f4428"/><ellipse cx="-30" cy="-128" rx="9" ry="5.5" fill="#ff8fab" opacity="0.6"/><ellipse cx="30" cy="-128" rx="9" ry="5.5" fill="#ff8fab" opacity="0.6"/><path d="M -26 -147 Q -18 -159 -10 -147" fill="none" stroke="#2b2b3a" stroke-width="3.8" stroke-linecap="round" stroke-linejoin="round"/><path d="M 10 -147 Q 18 -159 26 -147" fill="none" stroke="#2b2b3a" stroke-width="3.8" stroke-linecap="round" stroke-linejoin="round"/><path d="M -4 -134 Q 0 -130 4 -134" fill="none" stroke="#53331e" stroke-width="3" stroke-linecap="round" stroke-linejoin="round"/><path d="M -11.7 -123 Q 0 -99 11.7 -123 Z" fill="#c92a2a" stroke="#2b2b3a" stroke-width="3" stroke-linecap="round" stroke-linejoin="round"/><ellipse cx="0" cy="-112" rx="5.4" ry="3.5" fill="#ff8787"/><path d="M -52 -146 Q -58 -208 0 -208 Q 58 -208 52 -146 Q 46 -170 24 -176 Q 30 -186 18 -188 Q 6 -174 -20 -178 Q -44 -174 -52 -146 Z" fill="#2b2b3a"/></g>
<g transform="translate(560 640)"><rect x="-60" y="0" width="120" height="90" rx="6" fill="#fa5252"/><ellipse cx="0" cy="90" rx="60" ry="14" fill="#fa5252"/><ellipse cx="0" cy="0" rx="60" ry="14" fill="#fff4e6" stroke="#c92a2a" stroke-width="3"/><path d="M -60 10 L -30 80 L 0 10 L 30 80 L 60 10" fill="none" stroke="#ffd43b" stroke-width="5" stroke-linecap="round" stroke-linejoin="round"/></g>
<g><g transform="translate(336.7 395.8) rotate(-11) scale(0.9 0.9)"><ellipse cx="0" cy="0" rx="11" ry="8" fill="#e8590c" transform="rotate(-20 0 0)"/><line x1="9" y1="-2" x2="9" y2="-42" stroke="#e8590c" stroke-width="4" stroke-linecap="round"/><path d="M 9 -42 Q 26 -34 24 -16" fill="none" stroke="#e8590c" stroke-width="4" stroke-linecap="round" stroke-linejoin="round"/></g><g transform="translate(380 325) scale(0.63 0.63)"><ellipse cx="0" cy="0" rx="9" ry="7" fill="#e8590c" transform="rotate(-20 0 0)"/><line x1="8" y1="-2" x2="8" y2="-34" stroke="#e8590c" stroke-width="3.5" stroke-linecap="round"/><path d="M 8 -34 Q 20 -28 20 -16" fill="none" stroke="#e8590c" stroke-width="3.5" stroke-linecap="round" stroke-linejoin="round"/><ellipse cx="34" cy="10" rx="9" ry="7" fill="#e8590c" transform="rotate(-20 34 10)"/><ellipse cx="64" cy="2" rx="9" ry="7" fill="#e8590c" transform="rotate(-20 64 2)"/><line x1="42" y1="8" x2="42" y2="-24" stroke="#e8590c" stroke-width="3.5" stroke-linecap="round"/><line x1="72" y1="0" x2="72" y2="-32" stroke="#e8590c" stroke-width="3.5" stroke-linecap="round"/><line x1="42" y1="-24" x2="72" y2="-32" stroke="#e8590c" stroke-width="6" stroke-linecap="round"/></g><g transform="translate(483.3 254.2) rotate(10.4) scale(0.9 0.9)"><ellipse cx="0" cy="0" rx="11" ry="8" fill="#e8590c" transform="rotate(-20 0 0)"/><line x1="9" y1="-2" x2="9" y2="-42" stroke="#e8590c" stroke-width="4" stroke-linecap="round"/><path d="M 9 -42 Q 26 -34 24 -16" fill="none" stroke="#e8590c" stroke-width="4" stroke-linecap="round" stroke-linejoin="round"/></g></g>
</svg>
