<svg xmlns="http://www.w3.org/2000/svg" viewBox="0 0 800 800" width="800" height="800">
<defs><linearGradient id="d5" x1="0" y1="0" x2="0" y2="1"><stop offset="0" stop-color="#a5d8ff"/><stop offset="1" stop-color="#e7f5ff"/></linearGradient></defs>
<rect x="0" y="0" width="800" height="800" fill="url(#d5)"/>
<g transform="translate(160 130) scale(0.8 0.8)"><g><circle cx="-55" cy="10" r="38" fill="#ffffff"/><circle cx="-15" cy="-18" r="50" fill="#ffffff"/><circle cx="40" cy="-8" r="42" fill="#ffffff"/><circle cx="78" cy="18" r="30" fill="#ffffff"/><rect x="-95" y="5" width="200" height="50" rx="25" fill="#ffffff"/></g></g>
<g transform="translate(640 100) scale(0.6 0.6)"><g><circle cx="-55" cy="10" r="38" fill="#ffffff"/><circle cx="-15" cy="-18" r="50" fill="#ffffff"/><circle cx="40" cy="-8" r="42" fill="#ffffff"/><circle cx="78" cy="18" r="30" fill="#ffffff"/><rect x="-95" y="5" width="200" height="50" rx="25" fill="#ffffff"/></g></g>
<path d="M -154.4 600 Q 168.5 392.6 491.5 600 Z" fill="#b2f2bb"/>
<path d="M 158 600 Q 371.4 373.1 584.8 600 Z" fill="#b2f2bb"/>
<path d="M 348.5 600 Q 663.1 405 977.7 600 Z" fill="#b2f2bb"/>
<path d="M 0 640 Q 240.0 622 400.0 640 T 800 640 L 800 800 L 0 800 Z" fill="#8ce99a"/>
<path d="M 0 730 Q 320.0 712 560.0 730 T 1000 730 L 800 800 L 0 800 Z" fill="#69db7c"/>
<g transform="translate(560 660)"><polygon points="-110,0 -80,-300 80,-300 110,0" fill="#f1e3c8"/><polygon points="-100,-296 0,-390 100,-296" fill="#c92a2a"/><path d="M -34 0 L -34 -70 Q 0 -100 34 -70 L 34 0 Z" fill="#8d5524"/><rect x="-24" y="-210" width="48" height="48" fill="#a5d8ff" stroke="#fff" stroke-width="5"/><g transform="translate(0 -320)"><g transform="rotate(45)"><rect x="-8" y="-250" width="16" height="250" fill="#8d5524"/><rect x="8" y="-240" width="60" height="200" fill="#fff9db" stroke="#c68642" stroke-width="4"/><line x1="8" y1="-200" x2="68" y2="-200" stroke="#c68642" stroke-width="3" stroke-linecap="round"/><line x1="8" y1="-160" x2="68" y2="-160" stroke="#c68642" stroke-width="3" stroke-linecap="round"/><line x1="8" y1="-120" x2="68" y2="-120" stroke="#c68642" stroke-width="3" stroke-linecap="round"/><line x1="8" y1="-80" x2="68" y2="-80" stroke="#c68642" stroke-width="3" stroke-linecap="round"/></g><g transform="rotate(135)"><rect x="-8" y="-250" width="16" height="250" fill="#8d5524"/><rect x="8" y="-240" width="60" height="200" fill="#fff9db" stroke="#c68642" stroke-width="4"/><line x1="8" y1="-200" x2="68" y2="-200" stroke="#c68642" stroke-width="3" stroke-linecap="round"/><line x1="8" y1="-160" x2="68" y2="-160" stroke="#c68642" stroke-width="3" stroke-linecap="round"/><line x1="8" y1="-120" x2="68" y2="-120" stroke="#c68642" stroke-width="3" stroke-linecap="round"/><line x1="8" y1="-80" x2="68" y2="-80" stroke="#c68642" stroke-width="3" stroke-linecap="round"/></g><g transform="rotate(225)"><rect x="-8" y="-250" width="16" height="250" fill="#8d5524"/><rect x="8" y="-240" width="60" height="200" fill="#fff9db" stroke="#c68642" stroke-width="4"/><line x1="8" y1="-200" x2="68" y2="-200" stroke="#c68642" stroke-width="3" stroke-linecap="round"/><line x1="8" y1="-160" x2="68" y2="-160" stroke="#c68642" stroke-width="3" stroke-linecap="round"/><line x1="8" y1="-120" x2="68" y2="-120" stroke="#c68642" stroke-width="3" stroke-linecap="round"/><line x1="8" y1="-80" x2="68" y2="-80" stroke="#c68642" stroke-width="3" stroke-linecap="round"/></g><g transform="rotate(315)"><rect x="-8" y="-250" width="16" height="250" fill="#8d5524"/><rect x="8" y="-240" width="60" height="200" fill="#fff9db" stroke="#c68642" stroke-width="4"/><line x1="8" y1="-200" x2="68" y2="-200" stroke="#c68642" stroke-width="3" stroke-linecap="round"/><line x1="8" y1="-160" x2="68" y2="-160" stroke="#c68642" stroke-width="3" stroke-linecap="round"/><line x1="8" y1="-120" x2="68" y2="-120" stroke="#c68642" stroke-width="3" stroke-linecap="round"/><line x1="8" y1="-80" x2="68" y2="-80" stroke="#c68642" stroke-width="3" stroke-linecap="round"/></g></g><circle cx="0" cy="-320" r="18" fill="#495057"/></g>
<circle cx="259.1" cy="175.4" r="7.9" fill="#ffffff" opacity="0.9"/>
<circle cx="57.9" cy="367.9" r="6.2" fill="#ffffff" opacity="0.9"/>
<circle cx="46.4" cy="353.7" r="4.2" fill="#ffffff" opacity="0.9"/>
<circle cx="346.9" cy="134.9" r="4.5" fill="#ffffff" opacity="0.9"/>
<circle cx="339.6" cy="513.4" r="4.7" fill="#ffffff" opacity="0.9"/>
<circle cx="178.6" cy="413.7" r="9.7" fill="#ffffff" opacity="0.9"/>
<circle cx="461.7" cy="298.3" r="9.9" fill="#ffffff" opacity="0.9"/>
<circle cx="37.3" cy="529.2" r="5.7" fill="#ffffff" opacity="0.9"/>
<circle cx="115.4" cy="158.9" r="5.9" fill="#ffffff" opacity="0.9"/>
<circle cx="652.9" cy="190.4" r="7.5" fill="#ffffff" opacity="0.9"/>
<g transform="translate(240 790) scale(1.5 1.5)"><rect x="-26" y="-52" width="20" height="46" rx="8" fill="#868e96"/><rect x="6" y="-52" width="20" height="46" rx="8" fill="#868e96"/><ellipse cx="-17" cy="-6" rx="16" ry="9" fill="#a3a5a7"/><ellipse cx="17" cy="-6" rx="16" ry="9" fill="#a3a5a7"/><path d="M -32 -106 Q 0 -112 32 -106 L 40 -46 Q 0 -36 -40 -46 Z" fill="#e9ecef"/><rect x="-38" y="-62" width="76" height="10" rx="5" fill="#aeb1b3"/><path d="M -28 -98 Q -57 -125.5 -70 -165" fill="none" stroke="#e9ecef" stroke-width="14" stroke-linecap="round" stroke-linejoin="round"/><path d="M 28 -98 Q 57 -125.5 70 -165" fill="none" stroke="#e9ecef" stroke-width="14" stroke-linecap="round" stroke-linejoin="round"/><circle cx="-70" cy="-165" r="10.5" fill="#f3c3a0"/><circle cx="70" cy="-165" r="10.5" fill="#f3c3a0"/><rect x="-9" y="-116" width="18" height="16" fill="#f3c3a0"/><circle cx="-49" cy="-148" r="11" fill="#f3c3a0"/><circle cx="49" cy="-148" r="11" fill="#f3c3a0"/><circle cx="0" cy="-150" r="50" fill="#f3c3a0"/><g><path d="M -48 -146 Q -52 -96 -20 -76 Q 0 -60 20 -76 Q 52 -96 48 -146 Q 40 -116 20 -112 Q 0 -104 -20 -112 Q -40 -116 -48 -146 Z" fill="#ced4da"/><path d="M -26 -126 Q -12 -136 0 -128 Q 12 -136 26 -126 Q 14 -118 0 -122 Q -14 -118 -26 -126 Z" fill="#b9bec4"/></g><ellipse cx="-30" cy="-128" rx="9" ry="5.5" fill="#ff8fab" opacity="0.6"/><ellipse cx="30" cy="-128" rx="9" ry="5.5" fill="#ff8fab" opacity="0.6"/><ellipse cx="-18" cy="-150" rx="8.5" ry="11.1" fill="#2b2b3a"/><circle cx="-16" cy="-153" r="2.9" fill="#fff"/><ellipse cx="18" cy="-150" rx="8.5" ry="11.1" fill="#2b2b3a"/><circle cx="20" cy="-153" r="2.9" fill="#fff"/><path d="M -28 -172 Q -18.5 -181 -9 -172" fill="none" stroke="#2b2b3a" stroke-width="3.5" stroke-linecap="round" stroke-linejoin="round"/><path d="M 28 -172 Q 18.5 -181 9 -172" fill="none" stroke="#2b2b3a" stroke-width="3.5" stroke-linecap="round" stroke-linejoin="round"/><path d="M -4 -134 Q 0 -130 4 -134" fill="none" stroke="#b69278" stroke-width="3" stroke-linecap="round" stroke-linejoin="round"/><path d="M -11.7 -123 Q 0 -99 11.7 -123 Z" fill="#c92a2a" stroke="#2b2b3a" stroke-width="3" stroke-linecap="round" stroke-linejoin="round"/><ellipse cx="0" cy="-112" rx="5.4" ry="3.5" fill="#ff8787"/><path d="M -52 -146 Q -58 -208 0 -208 Q 58 -208 52 -146 Q 46 -170 24 -176 Q 30 -186 18 -188 Q 6 -174 -20 -178 Q -44 -174 -52 -146 Z" fill="#adb5bd"/><g><path d="M -54 -168 Q -40 -226 20 -224 Q 70 -220 84 -150 Q 60 -196 30 -200 Q 0 -196 54 -168 Z" fill="#fff"/><path d="M -56 -166 Q 0 -196 56 -166" fill="none" stroke="#fff" stroke-width="10" stroke-linecap="round" stroke-linejoin="round"/><circle cx="86" cy="-146" r="12" fill="#fff"/></g></g>
<text x="250" y="220" font-family="Fredoka, Andika, sans-serif" font-weight="700" font-size="60" text-anchor="middle" fill="#1971c2" stroke="#fff" stroke-width="8.6" stroke-linejoin="round" paint-order="stroke">Oh là là !</text>
</svg>
