<svg xmlns="http://www.w3.org/2000/svg" viewBox="0 0 800 800" width="800" height="800">
<defs><linearGradient id="d2" x1="0" y1="0" x2="0" y2="1"><stop offset="0" stop-color="#74c0fc"/><stop offset="1" stop-color="#e7f5ff"/></linearGradient></defs>
<rect x="0" y="0" width="800" height="800" fill="url(#d2)"/>
<g transform="translate(160 140) scale(0.8 0.8)"><g opacity="0.9"><circle cx="-55" cy="10" r="38" fill="#ffffff"/><circle cx="-15" cy="-18" r="50" fill="#ffffff"/><circle cx="40" cy="-8" r="42" fill="#ffffff"/><circle cx="78" cy="18" r="30" fill="#ffffff"/><rect x="-95" y="5" width="200" height="50" rx="25" fill="#ffffff"/></g></g>
<g transform="translate(620 90) scale(0.6 0.6)"><g opacity="0.9"><circle cx="-55" cy="10" r="38" fill="#ffffff"/><circle cx="-15" cy="-18" r="50" fill="#ffffff"/><circle cx="40" cy="-8" r="42" fill="#ffffff"/><circle cx="78" cy="18" r="30" fill="#ffffff"/><rect x="-95" y="5" width="200" height="50" rx="25" fill="#ffffff"/></g></g>
<rect x="0" y="560" width="800" height="240" fill="#1c7ed6"/>
<path d="M -30 584 q 25 -14 50 0 M 70 584 q 25 -14 50 0 M 170 584 q 25 -14 50 0 M 270 584 q 25 -14 50 0 M 370 584 q 25 -14 50 0 M 470 584 q 25 -14 50 0 M 570 584 q 25 -14 50 0 M 670 584 q 25 -14 50 0 M 770 584 q 25 -14 50 0" fill="none" stroke="#4dabf7" stroke-width="6" stroke-linecap="round" stroke-linejoin="round"/>
<path d="M 20 628 q 25 -14 50 0 M 120 628 q 25 -14 50 0 M 220 628 q 25 -14 50 0 M 320 628 q 25 -14 50 0 M 420 628 q 25 -14 50 0 M 520 628 q 25 -14 50 0 M 620 628 q 25 -14 50 0 M 720 628 q 25 -14 50 0 M 820 628 q 25 -14 50 0" fill="none" stroke="#4dabf7" stroke-width="6" stroke-linecap="round" stroke-linejoin="round"/>
<path d="M -30 672 q 25 -14 50 0 M 70 672 q 25 -14 50 0 M 170 672 q 25 -14 50 0 M 270 672 q 25 -14 50 0 M 370 672 q 25 -14 50 0 M 470 672 q 25 -14 50 0 M 570 672 q 25 -14 50 0 M 670 672 q 25 -14 50 0 M 770 672 q 25 -14 50 0" fill="none" stroke="#4dabf7" stroke-width="6" stroke-linecap="round" stroke-linejoin="round"/>
<path d="M 20 716 q 25 -14 50 0 M 120 716 q 25 -14 50 0 M 220 716 q 25 -14 50 0 M 320 716 q 25 -14 50 0 M 420 716 q 25 -14 50 0 M 520 716 q 25 -14 50 0 M 620 716 q 25 -14 50 0 M 720 716 q 25 -14 50 0 M 820 716 q 25 -14 50 0" fill="none" stroke="#4dabf7" stroke-width="6" stroke-linecap="round" stroke-linejoin="round"/>
<path d="M -30 760 q 25 -14 50 0 M 70 760 q 25 -14 50 0 M 170 760 q 25 -14 50 0 M 270 760 q 25 -14 50 0 M 370 760 q 25 -14 50 0 M 470 760 q 25 -14 50 0 M 570 760 q 25 -14 50 0 M 670 760 q 25 -14 50 0 M 770 760 q 25 -14 50 0" fill="none" stroke="#4dabf7" stroke-width="6" stroke-linecap="round" stroke-linejoin="round"/>
<path d="M 20 804 q 25 -14 50 0 M 120 804 q 25 -14 50 0 M 220 804 q 25 -14 50 0 M 320 804 q 25 -14 50 0 M 420 804 q 25 -14 50 0 M 520 804 q 25 -14 50 0 M 620 804 q 25 -14 50 0 M 720 804 q 25 -14 50 0 M 820 804 q 25 -14 50 0" fill="none" stroke="#4dabf7" stroke-width="6" stroke-linecap="round" stroke-linejoin="round"/>
<path d="M -30 848 q 25 -14 50 0 M 70 848 q 25 -14 50 0 M 170 848 q 25 -14 50 0 M 270 848 q 25 -14 50 0 M 370 848 q 25 -14 50 0 M 470 848 q 25 -14 50 0 M 570 848 q 25 -14 50 0 M 670 848 q 25 -14 50 0 M 770 848 q 25 -14 50 0" fill="none" stroke="#4dabf7" stroke-width="6" stroke-linecap="round" stroke-linejoin="round"/>
<rect x="0" y="520" width="260" height="60" fill="#c68642"/>
<rect x="20" y="580" width="20" height="200" fill="#8d5524"/>
<rect x="200" y="580" width="20" height="200" fill="#8d5524"/>
<g transform="translate(470 620) scale(1.1 1.1)"><line x1="0" y1="-40" x2="0" y2="-400" stroke="#8d5524" stroke-width="10" stroke-linecap="round"/><path d="M 10 -390 Q 150 -260 170 -60 L 10 -60 Z" fill="#fff9db" stroke="#d8d3ba" stroke-width="4" stroke-linecap="round" stroke-linejoin="round"/><path d="M -10 -350 Q -120 -220 -170 -60 L -10 -60 Z" fill="#fff9db" stroke="#d8d3ba" stroke-width="4" stroke-linecap="round" stroke-linejoin="round"/><polygon points="0,-400 70,-385 0,-370" fill="#4dabf7"/><g transform="translate(-120 -60) scale(0.55 0.55)"><rect x="-26" y="-52" width="20" height="46" rx="8" fill="#212529"/><rect x="6" y="-52" width="20" height="46" rx="8" fill="#212529"/><ellipse cx="-17" cy="-6" rx="16" ry="9" fill="#104677"/><ellipse cx="17" cy="-6" rx="16" ry="9" fill="#104677"/><path d="M -32 -106 Q 0 -112 32 -106 L 40 -46 Q 0 -36 -40 -46 Z" fill="#1864ab"/><rect x="-38" y="-62" width="76" height="10" rx="5" fill="#124b80"/><path d="M -28 -98 Q -48 -63 -52 -40" fill="none" stroke="#1864ab" stroke-width="14" stroke-linecap="round" stroke-linejoin="round"/><path d="M 28 -98 Q 48 -63 52 -40" fill="none" stroke="#1864ab" stroke-width="14" stroke-linecap="round" stroke-linejoin="round"/><circle cx="-52" cy="-40" r="10.5" fill="#f3c3a0"/><circle cx="52" cy="-40" r="10.5" fill="#f3c3a0"/><rect x="-9" y="-116" width="18" height="16" fill="#f3c3a0"/><circle cx="-49" cy="-148" r="11" fill="#f3c3a0"/><circle cx="49" cy="-148" r="11" fill="#f3c3a0"/><circle cx="0" cy="-150" r="50" fill="#f3c3a0"/><g><path d="M -48 -146 Q -52 -96 -20 -76 Q 0 -60 20 -76 Q 52 -96 48 -146 Q 40 -116 20 -112 Q 0 -104 -20 -112 Q -40 -116 -48 -146 Z" fill="#e9ecef"/><path d="M -26 -126 Q -12 -136 0 -128 Q 12 -136 26 -126 Q 14 -118 0 -122 Q -14 -118 -26 -126 Z" fill="#d1d4d7"/></g><ellipse cx="-30" cy="-128" rx="9" ry="5.5" fill="#ff8fab" opacity="0.6"/><ellipse cx="30" cy="-128" rx="9" ry="5.5" fill="#ff8fab" opacity="0.6"/><ellipse cx="-18" cy="-150" rx="6.5" ry="8.5" fill="#2b2b3a"/><circle cx="-16" cy="-153" r="2.2" fill="#fff"/><ellipse cx="18" cy="-150" rx="6.5" ry="8.5" fill="#2b2b3a"/><circle cx="20" cy="-153" r="2.2" fill="#fff"/><path d="M -4 -134 Q 0 -130 4 -134" fill="none" stroke="#b69278" stroke-width="3" stroke-linecap="round" stroke-linejoin="round"/><path d="M -10.8 -121 Q 0 -109 10.8 -121" fill="none" stroke="#2b2b3a" stroke-width="3.8" stroke-linecap="round" stroke-linejoin="round"/><path d="M -52 -146 Q -58 -208 0 -208 Q 58 -208 52 -146 Q 46 -170 24 -176 Q 30 -186 18 -188 Q 6 -174 -20 -178 Q -44 -174 -52 -146 Z" fill="#adb5bd"/></g><g transform="translate(0 -60) scale(0.55 0.55)"><rect x="-26" y="-52" width="20" height="46" rx="8" fill="#1c7ed6"/><rect x="6" y="-52" width="20" height="46" rx="8" fill="#1c7ed6"/><ellipse cx="-17" cy="-6" rx="16" ry="9" fill="#adaeaf"/><ellipse cx="17" cy="-6" rx="16" ry="9" fill="#adaeaf"/><path d="M -32 -106 Q 0 -112 32 -106 L 40 -46 Q 0 -36 -40 -46 Z" fill="#f8f9fa"/><rect x="-38" y="-62" width="76" height="10" rx="5" fill="#bababb"/><path d="M -28 -98 Q -48 -63 -52 -40" fill="none" stroke="#f8f9fa" stroke-width="14" stroke-linecap="round" stroke-linejoin="round"/><path d="M 28 -98 Q 48 -63 52 -40" fill="none" stroke="#f8f9fa" stroke-width="14" stroke-linecap="round" stroke-linejoin="round"/><circle cx="-52" cy="-40" r="10.5" fill="#a86a3f"/><circle cx="52" cy="-40" r="10.5" fill="#a86a3f"/><rect x="-9" y="-116" width="18" height="16" fill="#a86a3f"/><circle cx="-49" cy="-148" r="11" fill="#a86a3f"/><circle cx="49" cy="-148" r="11" fill="#a86a3f"/><circle cx="0" cy="-150" r="50" fill="#a86a3f"/><ellipse cx="-30" cy="-128" rx="9" ry="5.5" fill="#ff8fab" opacity="0.6"/><ellipse cx="30" cy="-128" rx="9" ry="5.5" fill="#ff8fab" opacity="0.6"/><ellipse cx="-18" cy="-150" rx="6.5" ry="8.5" fill="#2b2b3a"/><circle cx="-16" cy="-153" r="2.2" fill="#fff"/><ellipse cx="18" cy="-150" rx="6.5" ry="8.5" fill="#2b2b3a"/><circle cx="20" cy="-153" r="2.2" fill="#fff"/><path d="M -4 -134 Q 0 -130 4 -134" fill="none" stroke="#7e4f2f" stroke-width="3" stroke-linecap="round" stroke-linejoin="round"/><path d="M -10.8 -121 Q 0 -109 10.8 -121" fill="none" stroke="#2b2b3a" stroke-width="3.8" stroke-linecap="round" stroke-linejoin="round"/><path d="M -52 -146 Q -58 -208 0 -208 Q 58 -208 52 -146 Q 46 -170 24 -176 Q 30 -186 18 -188 Q 6 -174 -20 -178 Q -44 -174 -52 -146 Z" fill="#2b2b3a"/></g><g transform="translate(110 -60) scale(0.5 0.5)"><rect x="-26" y="-52" width="20" height="46" rx="8" fill="#1c7ed6"/><rect x="6" y="-52" width="20" height="46" rx="8" fill="#1c7ed6"/><ellipse cx="-17" cy="-6" rx="16" ry="9" fill="#adaeaf"/><ellipse cx="17" cy="-6" rx="16" ry="9" fill="#adaeaf"/><path d="M -32 -106 Q 0 -112 32 -106 L 40 -46 Q 0 -36 -40 -46 Z" fill="#f8f9fa"/><rect x="-38" y="-62" width="76" height="10" rx="5" fill="#bababb"/><path d="M -28 -98 Q -48 -63 -52 -40" fill="none" stroke="#f8f9fa" stroke-width="14" stroke-linecap="round" stroke-linejoin="round"/><path d="M 28 -98 Q 58 -123 72 -160" fill="none" stroke="#f8f9fa" stroke-width="14" stroke-linecap="round" stroke-linejoin="round"/><circle cx="-52" cy="-40" r="10.5" fill="#f3c3a0"/><circle cx="72" cy="-160" r="10.5" fill="#f3c3a0"/><rect x="-9" y="-116" width="18" height="16" fill="#f3c3a0"/><circle cx="-49" cy="-148" r="11" fill="#f3c3a0"/><circle cx="49" cy="-148" r="11" fill="#f3c3a0"/><circle cx="0" cy="-150" r="50" fill="#f3c3a0"/><ellipse cx="-30" cy="-128" rx="9" ry="5.5" fill="#ff8fab" opacity="0.6"/><ellipse cx="30" cy="-128" rx="9" ry="5.5" fill="#ff8fab" opacity="0.6"/><path d="M -26 -147 Q -18 -159 -10 -147" fill="none" stroke="#2b2b3a" stroke-width="3.8" stroke-linecap="round" stroke-linejoin="round"/><path d="M 10 -147 Q 18 -159 26 -147" fill="none" stroke="#2b2b3a" stroke-width="3.8" stroke-linecap="round" stroke-linejoin="round"/><path d="M -4 -134 Q 0 -130 4 -134" fill="none" stroke="#b69278" stroke-width="3" stroke-linecap="round" stroke-linejoin="round"/><path d="M -10.8 -121 Q 0 -109 10.8 -121" fill="none" stroke="#2b2b3a" stroke-width="3.8" stroke-linecap="round" stroke-linejoin="round"/><path d="M -52 -146 Q -58 -208 0 -208 Q 58 -208 52 -146 Q 46 -170 24 -176 Q 30 -186 18 -188 Q 6 -174 -20 -178 Q -44 -174 -52 -146 Z" fill="#f6c453"/></g><g transform="translate(110 -60) scale(0.5 0.5)"><rect x="-44" y="-96" width="88" height="7" fill="#1c7ed6"/><rect x="-44" y="-80" width="88" height="7" fill="#1c7ed6"/><rect x="-44" y="-64" width="88" height="7" fill="#1c7ed6"/><rect x="-44" y="-48" width="88" height="7" fill="#1c7ed6"/><path d="M -52 -196 Q 0 -240 52 -196 Z" fill="#1c7ed6"/><circle cx="0" cy="-228" r="12" fill="#fa5252"/></g><path d="M -240 -60 L 250 -60 Q 230 30 150 40 L -160 40 Q -230 20 -240 -60 Z" fill="#c92a2a"/><rect x="-236" y="-70" width="484" height="18" rx="6" fill="#961f1f"/><circle cx="-150" cy="-10" r="12" fill="#fff4e6" stroke="#8c1d1d" stroke-width="4"/><circle cx="-80" cy="-10" r="12" fill="#fff4e6" stroke="#8c1d1d" stroke-width="4"/><circle cx="-10" cy="-10" r="12" fill="#fff4e6" stroke="#8c1d1d" stroke-width="4"/><circle cx="60" cy="-10" r="12" fill="#fff4e6" stroke="#8c1d1d" stroke-width="4"/><circle cx="130" cy="-10" r="12" fill="#fff4e6" stroke="#8c1d1d" stroke-width="4"/></g>
<g><path d="M 0 640 q 25 -18 50 0 q 25 -18 50 0 q 25 -18 50 0 q 25 -18 50 0 q 25 -18 50 0 q 25 -18 50 0 q 25 -18 50 0 q 25 -18 50 0 q 25 -18 50 0 q 25 -18 50 0 q 25 -18 50 0 q 25 -18 50 0 q 25 -18 50 0 q 25 -18 50 0 q 25 -18 50 0 q 25 -18 50 0 L 800 800 L 0 800 Z" fill="#1c7ed6"/><path d="M -25 674 q 25 -12 50 0 M 75 674 q 25 -12 50 0 M 175 674 q 25 -12 50 0 M 275 674 q 25 -12 50 0 M 375 674 q 25 -12 50 0 M 475 674 q 25 -12 50 0 M 575 674 q 25 -12 50 0 M 675 674 q 25 -12 50 0 M 775 674 q 25 -12 50 0" fill="none" stroke="#4dabf7" stroke-width="5" stroke-linecap="round" stroke-linejoin="round"/></g>
<text x="470" y="110" font-family="Fredoka, Andika, sans-serif" font-weight="700" font-size="50" text-anchor="middle" fill="#c92a2a" stroke="#fff" stroke-width="7.1" stroke-linejoin="round" paint-order="stroke">Tout neuf !</text>
</svg>
