<svg xmlns="http://www.w3.org/2000/svg" viewBox="0 0 800 800" width="800" height="800">
<defs><linearGradient id="d1" x1="0" y1="0" x2="0" y2="1"><stop offset="0" stop-color="#74c0fc"/><stop offset="1" stop-color="#e7f5ff"/></linearGradient></defs>
<rect x="0" y="0" width="800" height="800" fill="url(#d1)"/>
<g transform="translate(160 140) scale(0.8 0.8)"><g opacity="0.9"><circle cx="-55" cy="10" r="38" fill="#ffffff"/><circle cx="-15" cy="-18" r="50" fill="#ffffff"/><circle cx="40" cy="-8" r="42" fill="#ffffff"/><circle cx="78" cy="18" r="30" fill="#ffffff"/><rect x="-95" y="5" width="200" height="50" rx="25" fill="#ffffff"/></g></g>
<g transform="translate(620 90) scale(0.6 0.6)"><g opacity="0.9"><circle cx="-55" cy="10" r="38" fill="#ffffff"/><circle cx="-15" cy="-18" r="50" fill="#ffffff"/><circle cx="40" cy="-8" r="42" fill="#ffffff"/><circle cx="78" cy="18" r="30" fill="#ffffff"/><rect x="-95" y="5" width="200" height="50" rx="25" fill="#ffffff"/></g></g>
<rect x="0" y="540" width="800" height="260" fill="#1c7ed6"/>
<path d="M -30 564 q 25 -14 50 0 M 70 564 q 25 -14 50 0 M 170 564 q 25 -14 50 0 M 270 564 q 25 -14 50 0 M 370 564 q 25 -14 50 0 M 470 564 q 25 -14 50 0 M 570 564 q 25 -14 50 0 M 670 564 q 25 -14 50 0 M 770 564 q 25 -14 50 0" fill="none" stroke="#4dabf7" stroke-width="6" stroke-linecap="round" stroke-linejoin="round"/>
<path d="M 20 608 q 25 -14 50 0 M 120 608 q 25 -14 50 0 M 220 608 q 25 -14 50 0 M 320 608 q 25 -14 50 0 M 420 608 q 25 -14 50 0 M 520 608 q 25 -14 50 0 M 620 608 q 25 -14 50 0 M 720 608 q 25 -14 50 0 M 820 608 q 25 -14 50 0" fill="none" stroke="#4dabf7" stroke-width="6" stroke-linecap="round" stroke-linejoin="round"/>
<path d="M -30 652 q 25 -14 50 0 M 70 652 q 25 -14 50 0 M 170 652 q 25 -14 50 0 M 270 652 q 25 -14 50 0 M 370 652 q 25 -14 50 0 M 470 652 q 25 -14 50 0 M 570 652 q 25 -14 50 0 M 670 652 q 25 -14 50 0 M 770 652 q 25 -14 50 0" fill="none" stroke="#4dabf7" stroke-width="6" stroke-linecap="round" stroke-linejoin="round"/>
<path d="M 20 696 q 25 -14 50 0 M 120 696 q 25 -14 50 0 M 220 696 q 25 -14 50 0 M 320 696 q 25 -14 50 0 M 420 696 q 25 -14 50 0 M 520 696 q 25 -14 50 0 M 620 696 q 25 -14 50 0 M 720 696 q 25 -14 50 0 M 820 696 q 25 -14 50 0" fill="none" stroke="#4dabf7" stroke-width="6" stroke-linecap="round" stroke-linejoin="round"/>
<path d="M -30 740 q 25 -14 50 0 M 70 740 q 25 -14 50 0 M 170 740 q 25 -14 50 0 M 270 740 q 25 -14 50 0 M 370 740 q 25 -14 50 0 M 470 740 q 25 -14 50 0 M 570 740 q 25 -14 50 0 M 670 740 q 25 -14 50 0 M 770 740 q 25 -14 50 0" fill="none" stroke="#4dabf7" stroke-width="6" stroke-linecap="round" stroke-linejoin="round"/>
<path d="M 20 784 q 25 -14 50 0 M 120 784 q 25 -14 50 0 M 220 784 q 25 -14 50 0 M 320 784 q 25 -14 50 0 M 420 784 q 25 -14 50 0 M 520 784 q 25 -14 50 0 M 620 784 q 25 -14 50 0 M 720 784 q 25 -14 50 0 M 820 784 q 25 -14 50 0" fill="none" stroke="#4dabf7" stroke-width="6" stroke-linecap="round" stroke-linejoin="round"/>
<path d="M -30 828 q 25 -14 50 0 M 70 828 q 25 -14 50 0 M 170 828 q 25 -14 50 0 M 270 828 q 25 -14 50 0 M 370 828 q 25 -14 50 0 M 470 828 q 25 -14 50 0 M 570 828 q 25 -14 50 0 M 670 828 q 25 -14 50 0 M 770 828 q 25 -14 50 0" fill="none" stroke="#4dabf7" stroke-width="6" stroke-linecap="round" stroke-linejoin="round"/>
<g><line x1="197" y1="130" x2="217" y2="130" stroke="#ffd43b" stroke-width="8" stroke-linecap="round"/><line x1="188" y1="163.5" x2="205.3" y2="173.5" stroke="#ffd43b" stroke-width="8" stroke-linecap="round"/><line x1="163.5" y1="188" x2="173.5" y2="205.3" stroke="#ffd43b" stroke-width="8" stroke-linecap="round"/><line x1="130" y1="197" x2="130" y2="217" stroke="#ffd43b" stroke-width="8" stroke-linecap="round"/><line x1="96.5" y1="188" x2="86.5" y2="205.3" stroke="#ffd43b" stroke-width="8" stroke-linecap="round"/><line x1="72" y1="163.5" x2="54.7" y2="173.5" stroke="#ffd43b" stroke-width="8" stroke-linecap="round"/><line x1="63" y1="130" x2="43" y2="130" stroke="#ffd43b" stroke-width="8" stroke-linecap="round"/><line x1="72" y1="96.5" x2="54.7" y2="86.5" stroke="#ffd43b" stroke-width="8" stroke-linecap="round"/><line x1="96.5" y1="72" x2="86.5" y2="54.7" stroke="#ffd43b" stroke-width="8" stroke-linecap="round"/><line x1="130" y1="63" x2="130" y2="43" stroke="#ffd43b" stroke-width="8" stroke-linecap="round"/><line x1="163.5" y1="72" x2="173.5" y2="54.7" stroke="#ffd43b" stroke-width="8" stroke-linecap="round"/><line x1="188" y1="96.5" x2="205.3" y2="86.5" stroke="#ffd43b" stroke-width="8" stroke-linecap="round"/><circle cx="130" cy="130" r="55" fill="#ffd43b"/></g>
<g transform="translate(420 640) scale(1.2 1.2)"><line x1="0" y1="-40" x2="0" y2="-400" stroke="#8d5524" stroke-width="10" stroke-linecap="round"/><path d="M 10 -390 Q 150 -260 170 -60 L 10 -60 Z" fill="#fff9db" stroke="#d8d3ba" stroke-width="4" stroke-linecap="round" stroke-linejoin="round"/><path d="M -10 -350 Q -120 -220 -170 -60 L -10 -60 Z" fill="#fff9db" stroke="#d8d3ba" stroke-width="4" stroke-linecap="round" stroke-linejoin="round"/><polygon points="0,-400 70,-385 0,-370" fill="#4dabf7"/><g transform="translate(-120 -60) scale(0.55 0.55)"><rect x="-26" y="-52" width="20" height="46" rx="8" fill="#212529"/><rect x="6" y="-52" width="20" height="46" rx="8" fill="#212529"/><ellipse cx="-17" cy="-6" rx="16" ry="9" fill="#104677"/><ellipse cx="17" cy="-6" rx="16" ry="9" fill="#104677"/><path d="M -32 -106 Q 0 -112 32 -106 L 40 -46 Q 0 -36 -40 -46 Z" fill="#1864ab"/><rect x="-38" y="-62" width="76" height="10" rx="5" fill="#124b80"/><path d="M -28 -98 Q -48 -63 -52 -40" fill="none" stroke="#1864ab" stroke-width="14" stroke-linecap="round" stroke-linejoin="round"/><path d="M 28 -98 Q 48 -63 52 -40" fill="none" stroke="#1864ab" stroke-width="14" stroke-linecap="round" stroke-linejoin="round"/><circle cx="-52" cy="-40" r="10.5" fill="#f3c3a0"/><circle cx="52" cy="-40" r="10.5" fill="#f3c3a0"/><rect x="-9" y="-116" width="18" height="16" fill="#f3c3a0"/><circle cx="-49" cy="-148" r="11" fill="#f3c3a0"/><circle cx="49" cy="-148" r="11" fill="#f3c3a0"/><circle cx="0" cy="-150" r="50" fill="#f3c3a0"/><g><path d="M -48 -146 Q -52 -96 -20 -76 Q 0 -60 20 -76 Q 52 -96 48 -146 Q 40 -116 20 -112 Q 0 -104 -20 -112 Q -40 -116 -48 -146 Z" fill="#e9ecef"/><path d="M -26 -126 Q -12 -136 0 -128 Q 12 -136 26 -126 Q 14 -118 0 -122 Q -14 -118 -26 -126 Z" fill="#d1d4d7"/></g><ellipse cx="-30" cy="-128" rx="9" ry="5.5" fill="#ff8fab" opacity="0.6"/><ellipse cx="30" cy="-128" rx="9" ry="5.5" fill="#ff8fab" opacity="0.6"/><ellipse cx="-18" cy="-150" rx="6.5" ry="8.5" fill="#2b2b3a"/><circle cx="-16" cy="-153" r="2.2" fill="#fff"/><ellipse cx="18" cy="-150" rx="6.5" ry="8.5" fill="#2b2b3a"/><circle cx="20" cy="-153" r="2.2" fill="#fff"/><path d="M -4 -134 Q 0 -130 4 -134" fill="none" stroke="#b69278" stroke-width="3" stroke-linecap="round" stroke-linejoin="round"/><path d="M -10.8 -121 Q 0 -109 10.8 -121" fill="none" stroke="#2b2b3a" stroke-width="3.8" stroke-linecap="round" stroke-linejoin="round"/><path d="M -52 -146 Q -58 -208 0 -208 Q 58 -208 52 -146 Q 46 -170 24 -176 Q 30 -186 18 -188 Q 6 -174 -20 -178 Q -44 -174 -52 -146 Z" fill="#adb5bd"/></g><g transform="translate(0 -60) scale(0.55 0.55)"><rect x="-26" y="-52" width="20" height="46" rx="8" fill="#1c7ed6"/><rect x="6" y="-52" width="20" height="46" rx="8" fill="#1c7ed6"/><ellipse cx="-17" cy="-6" rx="16" ry="9" fill="#adaeaf"/><ellipse cx="17" cy="-6" rx="16" ry="9" fill="#adaeaf"/><path d="M -32 -106 Q 0 -112 32 -106 L 40 -46 Q 0 -36 -40 -46 Z" fill="#f8f9fa"/><rect x="-38" y="-62" width="76" height="10" rx="5" fill="#bababb"/><path d="M -28 -98 Q -48 -63 -52 -40" fill="none" stroke="#f8f9fa" stroke-width="14" stroke-linecap="round" stroke-linejoin="round"/><path d="M 28 -98 Q 48 -63 52 -40" fill="none" stroke="#f8f9fa" stroke-width="14" stroke-linecap="round" stroke-linejoin="round"/><circle cx="-52" cy="-40" r="10.5" fill="#a86a3f"/><circle cx="52" cy="-40" r="10.5" fill="#a86a3f"/><rect x="-9" y="-116" width="18" height="16" fill="#a86a3f"/><circle cx="-49" cy="-148" r="11" fill="#a86a3f"/><circle cx="49" cy="-148" r="11" fill="#a86a3f"/><circle cx="0" cy="-150" r="50" fill="#a86a3f"/><ellipse cx="-30" cy="-128" rx="9" ry="5.5" fill="#ff8fab" opacity="0.6"/><ellipse cx="30" cy="-128" rx="9" ry="5.5" fill="#ff8fab" opacity="0.6"/><ellipse cx="-18" cy="-150" rx="6.5" ry="8.5" fill="#2b2b3a"/><circle cx="-16" cy="-153" r="2.2" fill="#fff"/><ellipse cx="18" cy="-150" rx="6.5" ry="8.5" fill="#2b2b3a"/><circle cx="20" cy="-153" r="2.2" fill="#fff"/><path d="M -4 -134 Q 0 -130 4 -134" fill="none" stroke="#7e4f2f" stroke-width="3" stroke-linecap="round" stroke-linejoin="round"/><path d="M -10.8 -121 Q 0 -109 10.8 -121" fill="none" stroke="#2b2b3a" stroke-width="3.8" stroke-linecap="round" stroke-linejoin="round"/><path d="M -52 -146 Q -58 -208 0 -208 Q 58 -208 52 -146 Q 46 -170 24 -176 Q 30 -186 18 -188 Q 6 -174 -20 -178 Q -44 -174 -52 -146 Z" fill="#2b2b3a"/></g><g transform="translate(110 -60) scale(0.5 0.5)"><rect x="-26" y="-52" width="20" height="46" rx="8" fill="#1c7ed6"/><rect x="6" y="-52" width="20" height="46" rx="8" fill="#1c7ed6"/><ellipse cx="-17" cy="-6" rx="16" ry="9" fill="#adaeaf"/><ellipse cx="17" cy="-6" rx="16" ry="9" fill="#adaeaf"/><path d="M -32 -106 Q 0 -112 32 -106 L 40 -46 Q 0 -36 -40 -46 Z" fill="#f8f9fa"/><rect x="-38" y="-62" width="76" height="10" rx="5" fill="#bababb"/><path d="M -28 -98 Q -48 -63 -52 -40" fill="none" stroke="#f8f9fa" stroke-width="14" stroke-linecap="round" stroke-linejoin="round"/><path d="M 28 -98 Q 58 -123 72 -160" fill="none" stroke="#f8f9fa" stroke-width="14" stroke-linecap="round" stroke-linejoin="round"/><circle cx="-52" cy="-40" r="10.5" fill="#f3c3a0"/><circle cx="72" cy="-160" r="10.5" fill="#f3c3a0"/><rect x="-9" y="-116" width="18" height="16" fill="#f3c3a0"/><circle cx="-49" cy="-148" r="11" fill="#f3c3a0"/><circle cx="49" cy="-148" r="11" fill="#f3c3a0"/><circle cx="0" cy="-150" r="50" fill="#f3c3a0"/><ellipse cx="-30" cy="-128" rx="9" ry="5.5" fill="#ff8fab" opacity="0.6"/><ellipse cx="30" cy="-128" rx="9" ry="5.5" fill="#ff8fab" opacity="0.6"/><path d="M -26 -147 Q -18 -159 -10 -147" fill="none" stroke="#2b2b3a" stroke-width="3.8" stroke-linecap="round" stroke-linejoin="round"/><path d="M 10 -147 Q 18 -159 26 -147" fill="none" stroke="#2b2b3a" stroke-width="3.8" stroke-linecap="round" stroke-linejoin="round"/><path d="M -4 -134 Q 0 -130 4 -134" fill="none" stroke="#b69278" stroke-width="3" stroke-linecap="round" stroke-linejoin="round"/><path d="M -11.7 -123 Q 0 -99 11.7 -123 Z" fill="#c92a2a" stroke="#2b2b3a" stroke-width="3" stroke-linecap="round" stroke-linejoin="round"/><ellipse cx="0" cy="-112" rx="5.4" ry="3.5" fill="#ff8787"/><path d="M -52 -146 Q -58 -208 0 -208 Q 58 -208 52 -146 Q 46 -170 24 -176 Q 30 -186 18 -188 Q 6 -174 -20 -178 Q -44 -174 -52 -146 Z" fill="#f6c453"/></g><g transform="translate(110 -60) scale(0.5 0.5)"><rect x="-44" y="-96" width="88" height="7" fill="#1c7ed6"/><rect x="-44" y="-80" width="88" height="7" fill="#1c7ed6"/><rect x="-44" y="-64" width="88" height="7" fill="#1c7ed6"/><rect x="-44" y="-48" width="88" height="7" fill="#1c7ed6"/><path d="M -52 -196 Q 0 -240 52 -196 Z" fill="#1c7ed6"/><circle cx="0" cy="-228" r="12" fill="#fa5252"/></g><path d="M -240 -60 L 250 -60 Q 230 30 150 40 L -160 40 Q -230 20 -240 -60 Z" fill="#c92a2a"/><rect x="-236" y="-70" width="484" height="18" rx="6" fill="#961f1f"/><circle cx="-150" cy="-10" r="12" fill="#fff4e6" stroke="#8c1d1d" stroke-width="4"/><circle cx="-80" cy="-10" r="12" fill="#fff4e6" stroke="#8c1d1d" stroke-width="4"/><circle cx="-10" cy="-10" r="12" fill="#fff4e6" stroke="#8c1d1d" stroke-width="4"/><circle cx="60" cy="-10" r="12" fill="#fff4e6" stroke="#8c1d1d" stroke-width="4"/><circle cx="130" cy="-10" r="12" fill="#fff4e6" stroke="#8c1d1d" stroke-width="4"/></g>
<g><path d="M 0 650 q 25 -18 50 0 q 25 -18 50 0 q 25 -18 50 0 q 25 -18 50 0 q 25 -18 50 0 q 25 -18 50 0 q 25 -18 50 0 q 25 -18 50 0 q 25 -18 50 0 q 25 -18 50 0 q 25 -18 50 0 q 25 -18 50 0 q 25 -18 50 0 q 25 -18 50 0 q 25 -18 50 0 q 25 -18 50 0 L 800 800 L 0 800 Z" fill="#1c7ed6"/><path d="M -25 684 q 25 -12 50 0 M 75 684 q 25 -12 50 0 M 175 684 q 25 -12 50 0 M 275 684 q 25 -12 50 0 M 375 684 q 25 -12 50 0 M 475 684 q 25 -12 50 0 M 575 684 q 25 -12 50 0 M 675 684 q 25 -12 50 0 M 775 684 q 25 -12 50 0" fill="none" stroke="#4dabf7" stroke-width="5" stroke-linecap="round" stroke-linejoin="round"/></g>
</svg>
