<svg xmlns="http://www.w3.org/2000/svg" viewBox="0 0 800 800" width="800" height="800">

<rect x="0" y="0" width="800" height="600" fill="#e3fafc"/>
<rect x="0" y="0" width="24" height="600" fill="#c5f6fa" opacity="0.35"/>
<rect x="60" y="0" width="24" height="600" fill="#c5f6fa" opacity="0.35"/>
<rect x="120" y="0" width="24" height="600" fill="#c5f6fa" opacity="0.35"/>
<rect x="180" y="0" width="24" height="600" fill="#c5f6fa" opacity="0.35"/>
<rect x="240" y="0" width="24" height="600" fill="#c5f6fa" opacity="0.35"/>
<rect x="300" y="0" width="24" height="600" fill="#c5f6fa" opacity="0.35"/>
<rect x="360" y="0" width="24" height="600" fill="#c5f6fa" opacity="0.35"/>
<rect x="420" y="0" width="24" height="600" fill="#c5f6fa" opacity="0.35"/>
<rect x="480" y="0" width="24" height="600" fill="#c5f6fa" opacity="0.35"/>
<rect x="540" y="0" width="24" height="600" fill="#c5f6fa" opacity="0.35"/>
<rect x="600" y="0" width="24" height="600" fill="#c5f6fa" opacity="0.35"/>
<rect x="660" y="0" width="24" height="600" fill="#c5f6fa" opacity="0.35"/>
<rect x="720" y="0" width="24" height="600" fill="#c5f6fa" opacity="0.35"/>
<rect x="780" y="0" width="24" height="600" fill="#c5f6fa" opacity="0.35"/>
<rect x="0" y="600" width="800" height="200" fill="#c68642"/>
<line x1="0" y1="650" x2="800" y2="650" stroke="#000" stroke-width="2" stroke-linecap="round" opacity="0.06"/>
<line x1="0" y1="700" x2="800" y2="700" stroke="#000" stroke-width="2" stroke-linecap="round" opacity="0.06"/>
<line x1="0" y1="750" x2="800" y2="750" stroke="#000" stroke-width="2" stroke-linecap="round" opacity="0.06"/>
<line x1="0" y1="800" x2="800" y2="800" stroke="#000" stroke-width="2" stroke-linecap="round" opacity="0.06"/>
<line x1="0" y1="850" x2="800" y2="850" stroke="#000" stroke-width="2" stroke-linecap="round" opacity="0.06"/>
<rect x="0" y="586" width="800" height="16" fill="#d9a066"/>
<g><rect x="552" y="82" width="186" height="166" rx="6" fill="#ffffff"/><rect x="560" y="90" width="170" height="150" fill="#1c2a52"/><circle cx="679" cy="135" r="16" fill="#fff3bf"/><circle cx="594" cy="127.5" r="2.5" fill="#fff"/><circle cx="628" cy="180" r="2" fill="#fff"/><circle cx="704.5" cy="202.5" r="2.5" fill="#fff"/><rect x="641" y="90" width="8" height="150" fill="#ffffff"/><rect x="560" y="161" width="170" height="8" fill="#ffffff"/><path d="M 540 76 L 590 76 Q 570 165.0 590 260 L 540 260 Z" fill="#74c0fc"/><path d="M 750 76 L 700 76 Q 720 165.0 700 260 L 750 260 Z" fill="#74c0fc"/><rect x="530" y="68" width="230" height="12" rx="6" fill="#adb5bd"/></g>
<rect x="80" y="470" width="330" height="130" rx="6" fill="#adb5bd"/>
<rect x="80" y="450" width="330" height="26" rx="6" fill="#868e96"/>
<rect x="150" y="380" width="120" height="80" fill="#8d5524" rx="10"/>
<ellipse cx="210" cy="382" rx="60" ry="12" fill="#5c3a1e"/>
<path d="M 200 380 q -10 -30 0 -60 q 10 -30 0 -60" fill="none" stroke="#ced4da" stroke-width="6" stroke-linecap="round" stroke-linejoin="round" opacity="0.8"/>
<g transform="translate(350 780) scale(-1.4 1.4)"><rect x="-26" y="-52" width="20" height="46" rx="8" fill="#495057"/><rect x="6" y="-52" width="20" height="46" rx="8" fill="#495057"/><ellipse cx="-17" cy="-6" rx="16" ry="9" fill="#3577ac"/><ellipse cx="17" cy="-6" rx="16" ry="9" fill="#3577ac"/><path d="M -32 -106 Q 0 -112 32 -106 L 40 -46 Q 0 -36 -40 -46 Z" fill="#4dabf7"/><rect x="-38" y="-62" width="76" height="10" rx="5" fill="#3980b9"/><path d="M -28 -98 Q -48 -63 -52 -40" fill="none" stroke="#4dabf7" stroke-width="14" stroke-linecap="round" stroke-linejoin="round"/><path d="M 28 -98 Q 64 -89 84 -92" fill="none" stroke="#4dabf7" stroke-width="14" stroke-linecap="round" stroke-linejoin="round"/><g transform="translate(84 -70) scale(1.4 1.4)"><rect x="-18" y="-34" width="36" height="34" rx="6" fill="#fa5252"/><path d="M 18 -26 q 16 0 16 12 q 0 10 -16 10" fill="none" stroke="#fa5252" stroke-width="6" stroke-linecap="round" stroke-linejoin="round"/></g><circle cx="-52" cy="-40" r="10.5" fill="#f3c3a0"/><circle cx="84" cy="-92" r="10.5" fill="#f3c3a0"/><rect x="-9" y="-116" width="18" height="16" fill="#f3c3a0"/><circle cx="-49" cy="-148" r="11" fill="#f3c3a0"/><circle cx="49" cy="-148" r="11" fill="#f3c3a0"/><circle cx="0" cy="-150" r="50" fill="#f3c3a0"/><g><path d="M -48 -146 Q -52 -96 -20 -76 Q 0 -60 20 -76 Q 52 -96 48 -146 Q 40 -116 20 -112 Q 0 -104 -20 -112 Q -40 -116 -48 -146 Z" fill="#4a2c17"/><path d="M -26 -126 Q -12 -136 0 -128 Q 12 -136 26 -126 Q 14 -118 0 -122 Q -14 -118 -26 -126 Z" fill="#422714"/></g><ellipse cx="-30" cy="-128" rx="9" ry="5.5" fill="#ff8fab" opacity="0.6"/><ellipse cx="30" cy="-128" rx="9" ry="5.5" fill="#ff8fab" opacity="0.6"/><path d="M -26 -147 Q -18 -159 -10 -147" fill="none" stroke="#2b2b3a" stroke-width="3.8" stroke-linecap="round" stroke-linejoin="round"/><path d="M 10 -147 Q 18 -159 26 -147" fill="none" stroke="#2b2b3a" stroke-width="3.8" stroke-linecap="round" stroke-linejoin="round"/><path d="M -4 -134 Q 0 -130 4 -134" fill="none" stroke="#b69278" stroke-width="3" stroke-linecap="round" stroke-linejoin="round"/><path d="M -10.8 -121 Q 0 -109 10.8 -121" fill="none" stroke="#2b2b3a" stroke-width="3.8" stroke-linecap="round" stroke-linejoin="round"/><path d="M -52 -146 Q -58 -208 0 -208 Q 58 -208 52 -146 Q 46 -170 24 -176 Q 30 -186 18 -188 Q 6 -174 -20 -178 Q -44 -174 -52 -146 Z" fill="#4a2c17"/></g>
<text x="400" y="60" font-family="Fredoka, Andika, sans-serif" font-weight="700" font-size="50" text-anchor="middle" fill="#1971c2">… et en bas !</text>
</svg>
