<svg xmlns="http://www.w3.org/2000/svg" viewBox="0 0 800 800" width="800" height="800">

<rect x="0" y="0" width="800" height="560" fill="#fff4e6"/>
<rect x="0" y="0" width="24" height="560" fill="#ffe8cc" opacity="0.35"/>
<rect x="60" y="0" width="24" height="560" fill="#ffe8cc" opacity="0.35"/>
<rect x="120" y="0" width="24" height="560" fill="#ffe8cc" opacity="0.35"/>
<rect x="180" y="0" width="24" height="560" fill="#ffe8cc" opacity="0.35"/>
<rect x="240" y="0" width="24" height="560" fill="#ffe8cc" opacity="0.35"/>
<rect x="300" y="0" width="24" height="560" fill="#ffe8cc" opacity="0.35"/>
<rect x="360" y="0" width="24" height="560" fill="#ffe8cc" opacity="0.35"/>
<rect x="420" y="0" width="24" height="560" fill="#ffe8cc" opacity="0.35"/>
<rect x="480" y="0" width="24" height="560" fill="#ffe8cc" opacity="0.35"/>
<rect x="540" y="0" width="24" height="560" fill="#ffe8cc" opacity="0.35"/>
<rect x="600" y="0" width="24" height="560" fill="#ffe8cc" opacity="0.35"/>
<rect x="660" y="0" width="24" height="560" fill="#ffe8cc" opacity="0.35"/>
<rect x="720" y="0" width="24" height="560" fill="#ffe8cc" opacity="0.35"/>
<rect x="780" y="0" width="24" height="560" fill="#ffe8cc" opacity="0.35"/>
<rect x="0" y="560" width="800" height="240" fill="#e8c39e"/>
<line x1="0" y1="610" x2="800" y2="610" stroke="#000" stroke-width="2" stroke-linecap="round" opacity="0.06"/>
<line x1="0" y1="660" x2="800" y2="660" stroke="#000" stroke-width="2" stroke-linecap="round" opacity="0.06"/>
<line x1="0" y1="710" x2="800" y2="710" stroke="#000" stroke-width="2" stroke-linecap="round" opacity="0.06"/>
<line x1="0" y1="760" x2="800" y2="760" stroke="#000" stroke-width="2" stroke-linecap="round" opacity="0.06"/>
<line x1="0" y1="810" x2="800" y2="810" stroke="#000" stroke-width="2" stroke-linecap="round" opacity="0.06"/>
<rect x="0" y="546" width="800" height="16" fill="#d9a066"/>
<g><rect x="552" y="112" width="186" height="176" rx="6" fill="#ffffff"/><rect x="560" y="120" width="170" height="160" fill="#364fc7"/><circle cx="679" cy="168" r="16" fill="#fff3bf"/><circle cx="594" cy="160" r="2.5" fill="#fff"/><circle cx="628" cy="216" r="2" fill="#fff"/><circle cx="704.5" cy="240" r="2.5" fill="#fff"/><rect x="641" y="120" width="8" height="160" fill="#ffffff"/><rect x="560" y="196" width="170" height="8" fill="#ffffff"/><path d="M 540 106 L 590 106 Q 570 200.0 590 300 L 540 300 Z" fill="#c92a2a"/><path d="M 750 106 L 700 106 Q 720 200.0 700 300 L 750 300 Z" fill="#c92a2a"/><rect x="530" y="98" width="230" height="12" rx="6" fill="#adb5bd"/></g>
<g transform="translate(330 700) scale(1.5 1.5)"><g><rect x="-12" y="-40" width="24" height="40" rx="4" fill="#7c4a1e"/><polygon points="-90,-40 0,-150 90,-40" fill="#2f9e44"/><polygon points="-72,-110 0,-220 72,-110" fill="#37b24d"/><polygon points="-52,-170 0,-280 52,-170" fill="#2f9e44"/></g><path d="M -70 -70 Q 0 -40 76 -90 M -56 -150 Q 0 -120 60 -160 M -40 -220 Q 0 -200 42 -230" fill="none" stroke="#ffd43b" stroke-width="6" stroke-linecap="round" stroke-linejoin="round" opacity="0.9"/><g><circle cx="-60" cy="-48" r="13" fill="#fa5252"/><circle cx="-64.5" cy="-52.5" r="3.9" fill="#fff" opacity="0.6"/><rect x="-65" y="-67" width="10" height="7" fill="#ffd43b"/></g><g><circle cx="40" cy="-60" r="13" fill="#4dabf7"/><circle cx="35.5" cy="-64.5" r="3.9" fill="#fff" opacity="0.6"/><rect x="35" y="-79" width="10" height="7" fill="#ffd43b"/></g><g><circle cx="-20" cy="-90" r="13" fill="#fcc419"/><circle cx="-24.6" cy="-94.5" r="3.9" fill="#fff" opacity="0.6"/><rect x="-25" y="-109" width="10" height="7" fill="#ffd43b"/></g><g><circle cx="64" cy="-110" r="13" fill="#cc5de8"/><circle cx="59.5" cy="-114.5" r="3.9" fill="#fff" opacity="0.6"/><rect x="59" y="-129" width="10" height="7" fill="#ffd43b"/></g><g><circle cx="-46" cy="-126" r="13" fill="#ff922b"/><circle cx="-50.5" cy="-130.6" r="3.9" fill="#fff" opacity="0.6"/><rect x="-51" y="-145" width="10" height="7" fill="#ffd43b"/></g><g><circle cx="20" cy="-150" r="13" fill="#fa5252"/><circle cx="15.4" cy="-154.6" r="3.9" fill="#fff" opacity="0.6"/><rect x="15" y="-169" width="10" height="7" fill="#ffd43b"/></g><g><circle cx="-28" cy="-190" r="13" fill="#4dabf7"/><circle cx="-32.5" cy="-194.6" r="3.9" fill="#fff" opacity="0.6"/><rect x="-33" y="-209" width="10" height="7" fill="#ffd43b"/></g><g><circle cx="32" cy="-200" r="13" fill="#fcc419"/><circle cx="27.4" cy="-204.6" r="3.9" fill="#fff" opacity="0.6"/><rect x="27" y="-219" width="10" height="7" fill="#ffd43b"/></g><g><circle cx="0" cy="-250" r="13" fill="#cc5de8"/><circle cx="-4.5" cy="-254.6" r="3.9" fill="#fff" opacity="0.6"/><rect x="-5" y="-269" width="10" height="7" fill="#ffd43b"/></g><rect x="-80" y="-94" width="8" height="18" fill="#fff"/><ellipse cx="-76" cy="-100" rx="5" ry="8" fill="#ffd43b"/><rect x="72" y="-114" width="8" height="18" fill="#fff"/><ellipse cx="76" cy="-120" rx="5" ry="8" fill="#ffd43b"/><rect x="-62" y="-174" width="8" height="18" fill="#fff"/><ellipse cx="-58" cy="-180" rx="5" ry="8" fill="#ffd43b"/><rect x="54" y="-184" width="8" height="18" fill="#fff"/><ellipse cx="58" cy="-190" rx="5" ry="8" fill="#ffd43b"/><rect x="-44" y="-244" width="8" height="18" fill="#fff"/><ellipse cx="-40" cy="-250" rx="5" ry="8" fill="#ffd43b"/><rect x="36" y="-254" width="8" height="18" fill="#fff"/><ellipse cx="40" cy="-260" rx="5" ry="8" fill="#ffd43b"/><polygon points="0,-320 7.9,-300.9 28.5,-299.3 12.8,-285.8 17.6,-265.7 0,-276.5 -17.6,-265.7 -12.8,-285.8 -28.5,-299.3 -7.9,-300.9" fill="#ffd43b" stroke="#ffd43b" stroke-width="5.4" stroke-linejoin="round"/><g transform="translate(-90 10) scale(0.8 0.8)"><rect x="-40" y="-70" width="80" height="70" rx="4" fill="#fa5252"/><rect x="-46" y="-82" width="92" height="18" rx="4" fill="#d44545"/><rect x="-7" y="-82" width="14" height="82" fill="#ffd43b"/><path d="M 0 -82 Q -30 -110 -20 -84 Z M 0 -82 Q 30 -110 20 -84 Z" fill="#ffd43b"/></g><g transform="translate(80 10) scale(0.7 0.7)"><rect x="-40" y="-70" width="80" height="70" rx="4" fill="#4dabf7"/><rect x="-46" y="-82" width="92" height="18" rx="4" fill="#4191d1"/><rect x="-7" y="-82" width="14" height="82" fill="#fff"/><path d="M 0 -82 Q -30 -110 -20 -84 Z M 0 -82 Q 30 -110 20 -84 Z" fill="#fff"/></g><g transform="translate(10 14) scale(0.55 0.55)"><rect x="-40" y="-70" width="80" height="70" rx="4" fill="#cc5de8"/><rect x="-46" y="-82" width="92" height="18" rx="4" fill="#ad4fc5"/><rect x="-7" y="-82" width="14" height="82" fill="#ffd43b"/><path d="M 0 -82 Q -30 -110 -20 -84 Z M 0 -82 Q 30 -110 20 -84 Z" fill="#ffd43b"/></g></g>
<g transform="translate(620 760) scale(0.8 0.8)"><path d="M -90 0 Q 0 30 90 0" fill="none" stroke="#c92a2a" stroke-width="12" stroke-linecap="round" stroke-linejoin="round"/><line x1="-50" y1="-50" x2="-60" y2="6" stroke="#a0693a" stroke-width="10" stroke-linecap="round"/><line x1="50" y1="-50" x2="60" y2="6" stroke="#a0693a" stroke-width="10" stroke-linecap="round"/><ellipse cx="0" cy="-66" rx="70" ry="32" fill="#fff4e6"/><rect x="-24" y="-96" width="48" height="20" rx="6" fill="#fa5252"/><path d="M 46 -80 L 80 -150 L 112 -136 L 70 -64 Z" fill="#fff4e6"/><ellipse cx="100" cy="-144" rx="26" ry="18" fill="#fff4e6"/><path d="M 54 -96 Q 60 -150 84 -160" fill="none" stroke="#a0693a" stroke-width="10" stroke-linecap="round" stroke-linejoin="round"/><circle cx="104" cy="-150" r="4" fill="#2b2b3a"/><path d="M -70 -70 q -30 10 -30 40" fill="none" stroke="#a0693a" stroke-width="10" stroke-linecap="round" stroke-linejoin="round"/></g>
</svg>
