<svg xmlns="http://www.w3.org/2000/svg" viewBox="0 0 800 800" width="800" height="800">

<rect x="0" y="0" width="800" height="600" fill="#e9d8b4"/>
<rect x="0" y="600" width="800" height="200" fill="#a0693a"/>
<line x1="0" y1="650" x2="800" y2="650" stroke="#000" stroke-width="2" stroke-linecap="round" opacity="0.06"/>
<line x1="0" y1="700" x2="800" y2="700" stroke="#000" stroke-width="2" stroke-linecap="round" opacity="0.06"/>
<line x1="0" y1="750" x2="800" y2="750" stroke="#000" stroke-width="2" stroke-linecap="round" opacity="0.06"/>
<line x1="0" y1="800" x2="800" y2="800" stroke="#000" stroke-width="2" stroke-linecap="round" opacity="0.06"/>
<line x1="0" y1="850" x2="800" y2="850" stroke="#000" stroke-width="2" stroke-linecap="round" opacity="0.06"/>
<rect x="0" y="586" width="800" height="16" fill="#8d5524"/>
<rect x="0" y="10" width="90" height="88" rx="10" fill="#dfc9a0" opacity="0.5"/>
<rect x="50" y="110" width="90" height="88" rx="10" fill="#dfc9a0" opacity="0.5"/>
<rect x="0" y="210" width="90" height="88" rx="10" fill="#dfc9a0" opacity="0.5"/>
<rect x="50" y="310" width="90" height="88" rx="10" fill="#dfc9a0" opacity="0.5"/>
<rect x="0" y="410" width="90" height="88" rx="10" fill="#dfc9a0" opacity="0.5"/>
<rect x="50" y="510" width="90" height="88" rx="10" fill="#dfc9a0" opacity="0.5"/>
<rect x="100" y="10" width="90" height="88" rx="10" fill="#dfc9a0" opacity="0.5"/>
<rect x="150" y="110" width="90" height="88" rx="10" fill="#dfc9a0" opacity="0.5"/>
<rect x="100" y="210" width="90" height="88" rx="10" fill="#dfc9a0" opacity="0.5"/>
<rect x="150" y="310" width="90" height="88" rx="10" fill="#dfc9a0" opacity="0.5"/>
<rect x="100" y="410" width="90" height="88" rx="10" fill="#dfc9a0" opacity="0.5"/>
<rect x="150" y="510" width="90" height="88" rx="10" fill="#dfc9a0" opacity="0.5"/>
<rect x="200" y="10" width="90" height="88" rx="10" fill="#dfc9a0" opacity="0.5"/>
<rect x="250" y="110" width="90" height="88" rx="10" fill="#dfc9a0" opacity="0.5"/>
<rect x="200" y="210" width="90" height="88" rx="10" fill="#dfc9a0" opacity="0.5"/>
<rect x="250" y="310" width="90" height="88" rx="10" fill="#dfc9a0" opacity="0.5"/>
<rect x="200" y="410" width="90" height="88" rx="10" fill="#dfc9a0" opacity="0.5"/>
<rect x="250" y="510" width="90" height="88" rx="10" fill="#dfc9a0" opacity="0.5"/>
<rect x="300" y="10" width="90" height="88" rx="10" fill="#dfc9a0" opacity="0.5"/>
<rect x="350" y="110" width="90" height="88" rx="10" fill="#dfc9a0" opacity="0.5"/>
<rect x="300" y="210" width="90" height="88" rx="10" fill="#dfc9a0" opacity="0.5"/>
<rect x="350" y="310" width="90" height="88" rx="10" fill="#dfc9a0" opacity="0.5"/>
<rect x="300" y="410" width="90" height="88" rx="10" fill="#dfc9a0" opacity="0.5"/>
<rect x="350" y="510" width="90" height="88" rx="10" fill="#dfc9a0" opacity="0.5"/>
<rect x="400" y="10" width="90" height="88" rx="10" fill="#dfc9a0" opacity="0.5"/>
<rect x="450" y="110" width="90" height="88" rx="10" fill="#dfc9a0" opacity="0.5"/>
<rect x="400" y="210" width="90" height="88" rx="10" fill="#dfc9a0" opacity="0.5"/>
<rect x="450" y="310" width="90" height="88" rx="10" fill="#dfc9a0" opacity="0.5"/>
<rect x="400" y="410" width="90" height="88" rx="10" fill="#dfc9a0" opacity="0.5"/>
<rect x="450" y="510" width="90" height="88" rx="10" fill="#dfc9a0" opacity="0.5"/>
<rect x="500" y="10" width="90" height="88" rx="10" fill="#dfc9a0" opacity="0.5"/>
<rect x="550" y="110" width="90" height="88" rx="10" fill="#dfc9a0" opacity="0.5"/>
<rect x="500" y="210" width="90" height="88" rx="10" fill="#dfc9a0" opacity="0.5"/>
<rect x="550" y="310" width="90" height="88" rx="10" fill="#dfc9a0" opacity="0.5"/>
<rect x="500" y="410" width="90" height="88" rx="10" fill="#dfc9a0" opacity="0.5"/>
<rect x="550" y="510" width="90" height="88" rx="10" fill="#dfc9a0" opacity="0.5"/>
<rect x="600" y="10" width="90" height="88" rx="10" fill="#dfc9a0" opacity="0.5"/>
<rect x="650" y="110" width="90" height="88" rx="10" fill="#dfc9a0" opacity="0.5"/>
<rect x="600" y="210" width="90" height="88" rx="10" fill="#dfc9a0" opacity="0.5"/>
<rect x="650" y="310" width="90" height="88" rx="10" fill="#dfc9a0" opacity="0.5"/>
<rect x="600" y="410" width="90" height="88" rx="10" fill="#dfc9a0" opacity="0.5"/>
<rect x="650" y="510" width="90" height="88" rx="10" fill="#dfc9a0" opacity="0.5"/>
<rect x="700" y="10" width="90" height="88" rx="10" fill="#dfc9a0" opacity="0.5"/>
<rect x="750" y="110" width="90" height="88" rx="10" fill="#dfc9a0" opacity="0.5"/>
<rect x="700" y="210" width="90" height="88" rx="10" fill="#dfc9a0" opacity="0.5"/>
<rect x="750" y="310" width="90" height="88" rx="10" fill="#dfc9a0" opacity="0.5"/>
<rect x="700" y="410" width="90" height="88" rx="10" fill="#dfc9a0" opacity="0.5"/>
<rect x="750" y="510" width="90" height="88" rx="10" fill="#dfc9a0" opacity="0.5"/>
<path d="M 560 300 L 560 150 Q 620 80 680 150 L 680 300 Z" fill="#1c2a52" stroke="#c9b28a" stroke-width="12" stroke-linecap="round" stroke-linejoin="round"/>
<g><rect x="56" y="560" width="28" height="230" rx="10" fill="#8d5524"/><rect x="596" y="620" width="28" height="170" rx="10" fill="#8d5524"/><rect x="70" y="680" width="540" height="60" rx="10" fill="#fff"/><rect x="90" y="640" width="110" height="50" rx="22" fill="#fff" stroke="#e9ecef" stroke-width="3"/><rect x="180" y="665" width="430" height="85" rx="18" fill="#8d5524"/><rect x="70" y="740" width="540" height="30" rx="6" fill="#8d5524"/></g>
<rect x="90" y="560" width="150" height="70" rx="30" fill="#fff"/>
<g transform="translate(190 760) scale(1.4 1.4)"><ellipse cx="-16" cy="-6" rx="14" ry="8" fill="#623b19"/><ellipse cx="16" cy="-6" rx="14" ry="8" fill="#623b19"/><path d="M -26 -106 Q 0 -112 26 -106 L 32 -74 Q 60 -34 66 -12 Q 0 2 -66 -12 Q -60 -34 -32 -74 Z" fill="#8d5524"/><rect x="-32" y="-80" width="64" height="10" rx="5" fill="#f1dcc3"/><path d="M -28 -98 Q -48 -63 -52 -40" fill="none" stroke="#8d5524" stroke-width="14" stroke-linecap="round" stroke-linejoin="round"/><path d="M 28 -98 Q 48 -63 52 -40" fill="none" stroke="#8d5524" stroke-width="14" stroke-linecap="round" stroke-linejoin="round"/><circle cx="-52" cy="-40" r="10.5" fill="#f3c3a0"/><circle cx="52" cy="-40" r="10.5" fill="#f3c3a0"/><rect x="-9" y="-116" width="18" height="16" fill="#f3c3a0"/><circle cx="-49" cy="-148" r="11" fill="#f3c3a0"/><circle cx="49" cy="-148" r="11" fill="#f3c3a0"/><circle cx="0" cy="-150" r="50" fill="#f3c3a0"/><ellipse cx="-30" cy="-128" rx="9" ry="5.5" fill="#ff8fab" opacity="0.6"/><ellipse cx="30" cy="-128" rx="9" ry="5.5" fill="#ff8fab" opacity="0.6"/><path d="M -26 -151 Q -18 -143 -10 -151" fill="none" stroke="#2b2b3a" stroke-width="3.8" stroke-linecap="round" stroke-linejoin="round"/><path d="M 10 -151 Q 18 -143 26 -151" fill="none" stroke="#2b2b3a" stroke-width="3.8" stroke-linecap="round" stroke-linejoin="round"/><path d="M -4 -134 Q 0 -130 4 -134" fill="none" stroke="#b69278" stroke-width="3" stroke-linecap="round" stroke-linejoin="round"/><ellipse cx="0" cy="-118" rx="3.5" ry="4.5" fill="#2b2b3a"/><g><ellipse cx="-48" cy="-150" rx="12" ry="22" fill="#8d5524"/><ellipse cx="48" cy="-150" rx="12" ry="22" fill="#8d5524"/></g></g>
<rect x="70" y="630" width="540" height="110" rx="24" fill="#a0693a"/>
<path d="M 90 660 Q 340 690 590 660" fill="none" stroke="#8d5524" stroke-width="6" stroke-linecap="round" stroke-linejoin="round"/>
<g><text x="320" y="360" font-family="Fredoka, Andika, sans-serif" font-weight="700" font-size="41.6" text-anchor="middle" fill="#5c7cfa">z</text><text x="358.4" y="318.4" font-family="Fredoka, Andika, sans-serif" font-weight="700" font-size="54.4" text-anchor="middle" fill="#5c7cfa">z</text><text x="406.4" y="264" font-family="Fredoka, Andika, sans-serif" font-weight="700" font-size="70.4" text-anchor="middle" fill="#5c7cfa">Z</text></g>
</svg>
