<svg xmlns="http://www.w3.org/2000/svg" viewBox="0 0 800 800" width="800" height="800">

<rect x="0" y="0" width="800" height="600" fill="#ffe8cc"/>
<rect x="0" y="0" width="24" height="600" fill="#ffd8a8" opacity="0.35"/>
<rect x="60" y="0" width="24" height="600" fill="#ffd8a8" opacity="0.35"/>
<rect x="120" y="0" width="24" height="600" fill="#ffd8a8" opacity="0.35"/>
<rect x="180" y="0" width="24" height="600" fill="#ffd8a8" opacity="0.35"/>
<rect x="240" y="0" width="24" height="600" fill="#ffd8a8" opacity="0.35"/>
<rect x="300" y="0" width="24" height="600" fill="#ffd8a8" opacity="0.35"/>
<rect x="360" y="0" width="24" height="600" fill="#ffd8a8" opacity="0.35"/>
<rect x="420" y="0" width="24" height="600" fill="#ffd8a8" opacity="0.35"/>
<rect x="480" y="0" width="24" height="600" fill="#ffd8a8" opacity="0.35"/>
<rect x="540" y="0" width="24" height="600" fill="#ffd8a8" opacity="0.35"/>
<rect x="600" y="0" width="24" height="600" fill="#ffd8a8" opacity="0.35"/>
<rect x="660" y="0" width="24" height="600" fill="#ffd8a8" opacity="0.35"/>
<rect x="720" y="0" width="24" height="600" fill="#ffd8a8" opacity="0.35"/>
<rect x="780" y="0" width="24" height="600" fill="#ffd8a8" opacity="0.35"/>
<rect x="0" y="600" width="800" height="200" fill="#c68642"/>
<line x1="0" y1="650" x2="800" y2="650" stroke="#000" stroke-width="2" stroke-linecap="round" opacity="0.06"/>
<line x1="0" y1="700" x2="800" y2="700" stroke="#000" stroke-width="2" stroke-linecap="round" opacity="0.06"/>
<line x1="0" y1="750" x2="800" y2="750" stroke="#000" stroke-width="2" stroke-linecap="round" opacity="0.06"/>
<line x1="0" y1="800" x2="800" y2="800" stroke="#000" stroke-width="2" stroke-linecap="round" opacity="0.06"/>
<line x1="0" y1="850" x2="800" y2="850" stroke="#000" stroke-width="2" stroke-linecap="round" opacity="0.06"/>
<rect x="0" y="586" width="800" height="16" fill="#d9a066"/>
<rect x="0" y="560" width="800" height="60" fill="#f6c453"/>
<line x1="0" y1="600" x2="30" y2="540" stroke="#e0a800" stroke-width="4" stroke-linecap="round"/>
<line x1="60" y1="600" x2="90" y2="540" stroke="#e0a800" stroke-width="4" stroke-linecap="round"/>
<line x1="120" y1="600" x2="150" y2="540" stroke="#e0a800" stroke-width="4" stroke-linecap="round"/>
<line x1="180" y1="600" x2="210" y2="540" stroke="#e0a800" stroke-width="4" stroke-linecap="round"/>
<line x1="240" y1="600" x2="270" y2="540" stroke="#e0a800" stroke-width="4" stroke-linecap="round"/>
<line x1="300" y1="600" x2="330" y2="540" stroke="#e0a800" stroke-width="4" stroke-linecap="round"/>
<line x1="360" y1="600" x2="390" y2="540" stroke="#e0a800" stroke-width="4" stroke-linecap="round"/>
<line x1="420" y1="600" x2="450" y2="540" stroke="#e0a800" stroke-width="4" stroke-linecap="round"/>
<line x1="480" y1="600" x2="510" y2="540" stroke="#e0a800" stroke-width="4" stroke-linecap="round"/>
<line x1="540" y1="600" x2="570" y2="540" stroke="#e0a800" stroke-width="4" stroke-linecap="round"/>
<line x1="600" y1="600" x2="630" y2="540" stroke="#e0a800" stroke-width="4" stroke-linecap="round"/>
<line x1="660" y1="600" x2="690" y2="540" stroke="#e0a800" stroke-width="4" stroke-linecap="round"/>
<line x1="720" y1="600" x2="750" y2="540" stroke="#e0a800" stroke-width="4" stroke-linecap="round"/>
<line x1="780" y1="600" x2="810" y2="540" stroke="#e0a800" stroke-width="4" stroke-linecap="round"/>
<ellipse cx="400" cy="720" rx="170" ry="50" fill="#f6c453"/>
<ellipse cx="400" cy="700" rx="140" ry="40" fill="#fcc419"/>
<g transform="translate(330 720) scale(1.2 1.2)"><ellipse cx="-54" cy="-80" rx="9.9" ry="28.6" fill="#c97a3a" transform="rotate(-42 -54 -80)"/><ellipse cx="-62" cy="-62" rx="8.1" ry="23.4" fill="#d98b48" transform="rotate(-34.8 -62 -62)"/><g><line x1="-12" y1="-30" x2="-12" y2="-4" stroke="#f08c00" stroke-width="4" stroke-linecap="round"/><path d="M -21 0 L -12 -6 L -3 0" fill="none" stroke="#f08c00" stroke-width="3.5" stroke-linecap="round" stroke-linejoin="round"/><line x1="12" y1="-30" x2="12" y2="-4" stroke="#f08c00" stroke-width="4" stroke-linecap="round"/><path d="M 3 0 L 12 -6 L 21 0" fill="none" stroke="#f08c00" stroke-width="3.5" stroke-linecap="round" stroke-linejoin="round"/><polygon points="38,-70 66,-86 62,-60" fill="#c6c7c8"/><circle cx="0" cy="-68" r="44" fill="#f8f9fa"/><ellipse cx="0" cy="-52" rx="28" ry="26" fill="#ffffff"/><ellipse cx="-40" cy="-60" rx="12" ry="24" fill="#d2d3d4" transform="rotate(20 -40 -60)"/><ellipse cx="40" cy="-60" rx="12" ry="24" fill="#d2d3d4" transform="rotate(-20 40 -60)"/><path d="M -6 -112 Q -2 -124 6 -118 Q 2 -126 12 -124" fill="none" stroke="#c6c7c8" stroke-width="4" stroke-linecap="round" stroke-linejoin="round"/><ellipse cx="-26" cy="-70" rx="7" ry="4.5" fill="#ff8fab" opacity="0.7"/><ellipse cx="26" cy="-70" rx="7" ry="4.5" fill="#ff8fab" opacity="0.7"/><path d="M -21.8 -79 Q -15 -89.7 -8.2 -79" fill="none" stroke="#2b2b3a" stroke-width="3.2" stroke-linecap="round" stroke-linejoin="round"/><path d="M 8.2 -79 Q 15 -89.7 21.8 -79" fill="none" stroke="#2b2b3a" stroke-width="3.2" stroke-linecap="round" stroke-linejoin="round"/><polygon points="-9,-70 9,-70 0,-58" fill="#ff922b"/></g><circle cx="-8" cy="-114" r="8" fill="#e03131"/><circle cx="4" cy="-118" r="9" fill="#e03131"/><circle cx="14" cy="-112" r="7" fill="#e03131"/><ellipse cx="0" cy="-52" rx="5" ry="7" fill="#e03131"/></g>
<g transform="translate(530 700) scale(1.3 1.3)"><ellipse cx="0" cy="-30" rx="44" ry="52" fill="#fff3bf" opacity="0.7"/><ellipse cx="0" cy="-30" rx="24" ry="32" fill="#fff9f0" stroke="#d8d3cc" stroke-width="2"/><ellipse cx="-8" cy="-42" rx="5" ry="9" fill="#fff" transform="rotate(-20 -8 -42)" opacity="0.7"/></g>
<g transform="translate(560 540) scale(0.7 0.7)"><path d="M 0 12 C -30 -8 -18 -32 0 -16 C 18 -32 30 -8 0 12 Z" fill="#ff6b6b"/></g>
</svg>
